<svg width="72" height="72" viewBox="0 0 72 72" fill="none" xmlns="http://www.w3.org/2000/svg">
<g clip-path="url(#clip0_27_2001)">
<path d="M18.1969 0.267204C17.2687 0.689079 17.0156 1.37814 17.0156 3.47345C17.0156 7.56564 17.7469 11.3766 19.3078 15.3L19.8703 16.7625L20.3766 16.6641C20.6578 16.6078 21.5859 16.2844 22.4297 15.9328C25.4531 14.6813 27.7312 14.2453 30.4875 14.386C33.4266 14.5406 34.875 14.9766 38.7141 16.8469C40.4156 17.6625 41.5406 18.1406 41.5969 18.0563C41.6531 17.9719 42.4828 16.9735 43.4531 15.8063C44.4234 14.6531 45.3094 13.5985 45.4219 13.4438C45.6047 13.2188 45.5766 13.1485 45.1406 12.7828C44.2125 11.9953 42.5531 10.9266 41.3438 10.336C39.1078 9.22502 37.2234 8.77502 33.975 8.57814C31.05 8.39533 29.5031 8.00158 27.5766 6.94689C26.1562 6.15939 25.2562 5.40002 22.8234 2.91095C21.5859 1.63127 20.3484 0.450018 20.0953 0.29533C19.5047 -0.0702953 18.9422 -0.0702953 18.1969 0.267204Z" fill="#2E58A1"/>
<path d="M57.7965 8.77498C55.8418 9.19685 54.3231 9.98436 52.9309 11.2922C52.4246 11.7562 49.8934 14.6953 47.2918 17.8031L42.5809 23.4562L38.3481 21.3609C33.159 18.8156 32.6106 18.6328 29.6715 18.6328C27.2809 18.6328 26.5215 18.8015 23.9762 19.8562C20.784 21.1922 21.1496 21.1359 13.0918 21.2062C5.0059 21.2625 5.21683 21.2344 4.65433 22.4015C4.27465 23.189 4.28871 23.5265 4.72465 24.7781C6.66527 30.2062 10.9543 35.1703 16.5934 38.5031C18.9559 39.8953 21.4309 40.8515 25.045 41.7656C26.0012 42.0047 26.8028 42.2297 26.8309 42.2578C26.859 42.2719 22.7387 46.0828 17.6903 50.7094L8.52152 59.1328L10.1246 59.175C11.0106 59.2031 18.295 59.189 26.2965 59.1609C42.0043 59.1187 41.6106 59.1328 44.5496 58.3453C53.3809 55.9828 60.2012 49.1625 62.5637 40.3312C63.2387 37.8422 63.309 36.9 63.3793 31.0359L63.4496 25.4531H66.8809C70.059 25.4531 70.3684 25.425 70.8746 25.1719C71.4793 24.8625 71.9996 24.0469 71.9996 23.414C71.9996 22.9359 70.3965 16.5375 70.0309 15.5672C68.934 12.6562 65.8121 9.91404 62.5496 8.99998C61.1996 8.62029 58.9918 8.52185 57.7965 8.77498ZM64.4059 15.1875C65.0387 15.5109 65.5309 16.3125 65.5309 17.0156C65.5309 17.7187 65.0387 18.5203 64.4059 18.8437C64.1106 18.9984 63.6606 19.125 63.4215 19.125C62.7184 19.125 61.9168 18.6328 61.5934 18C61.2418 17.2969 61.2418 16.7344 61.5934 16.0312C62.1137 15.0047 63.3371 14.639 64.4059 15.1875Z" fill="#2E58A1"/>
<path d="M1.04069 63.8156C-0.323377 64.9969 -0.309314 66.6844 1.06881 67.4437C1.77194 67.8375 14.4985 72 14.9766 72C15.5532 72 16.4251 71.4797 16.6782 70.9734C16.8188 70.7344 17.4376 68.9203 18.0704 66.9656L19.2235 63.4219H10.3501L1.47662 63.4359L1.04069 63.8156Z" fill="#2E58A1"/>
</g>
<defs>
<clipPath id="clip0_27_2001">
<rect width="72" height="72" fill="white"/>
</clipPath>
</defs>
</svg>
