<svg width="20" height="20" viewBox="0 0 20 20" fill="none" xmlns="http://www.w3.org/2000/svg">
<path d="M9.99935 15.8334C10.1642 15.8334 10.3253 15.7845 10.4623 15.6929C10.5994 15.6014 10.7062 15.4712 10.7692 15.3189C10.8323 15.1667 10.8488 14.9991 10.8167 14.8375C10.7845 14.6758 10.7051 14.5273 10.5886 14.4108C10.4721 14.2942 10.3236 14.2149 10.1619 14.1827C10.0003 14.1506 9.83272 14.1671 9.68045 14.2301C9.52817 14.2932 9.39803 14.4 9.30646 14.5371C9.21489 14.6741 9.16602 14.8352 9.16602 15C9.16602 15.2211 9.25381 15.433 9.41009 15.5893C9.56637 15.7456 9.77833 15.8334 9.99935 15.8334ZM14.166 15.8334C14.3308 15.8334 14.492 15.7845 14.629 15.6929C14.766 15.6014 14.8728 15.4712 14.9359 15.3189C14.999 15.1667 15.0155 14.9991 14.9833 14.8375C14.9512 14.6758 14.8718 14.5273 14.7553 14.4108C14.6387 14.2942 14.4902 14.2149 14.3286 14.1827C14.1669 14.1506 13.9994 14.1671 13.8471 14.2301C13.6948 14.2932 13.5647 14.4 13.4731 14.5371C13.3816 14.6741 13.3327 14.8352 13.3327 15C13.3327 15.2211 13.4205 15.433 13.5768 15.5893C13.733 15.7456 13.945 15.8334 14.166 15.8334ZM14.166 12.5C14.3308 12.5 14.492 12.4512 14.629 12.3596C14.766 12.268 14.8728 12.1379 14.9359 11.9856C14.999 11.8333 15.0155 11.6658 14.9833 11.5041C14.9512 11.3425 14.8718 11.194 14.7553 11.0775C14.6387 10.9609 14.4902 10.8815 14.3286 10.8494C14.1669 10.8172 13.9994 10.8337 13.8471 10.8968C13.6948 10.9599 13.5647 11.0667 13.4731 11.2037C13.3816 11.3408 13.3327 11.5019 13.3327 11.6667C13.3327 11.8877 13.4205 12.0997 13.5768 12.256C13.733 12.4122 13.945 12.5 14.166 12.5ZM9.99935 12.5C10.1642 12.5 10.3253 12.4512 10.4623 12.3596C10.5994 12.268 10.7062 12.1379 10.7692 11.9856C10.8323 11.8333 10.8488 11.6658 10.8167 11.5041C10.7845 11.3425 10.7051 11.194 10.5886 11.0775C10.4721 10.9609 10.3236 10.8815 10.1619 10.8494C10.0003 10.8172 9.83272 10.8337 9.68045 10.8968C9.52817 10.9599 9.39803 11.0667 9.30646 11.2037C9.21489 11.3408 9.16602 11.5019 9.16602 11.6667C9.16602 11.8877 9.25381 12.0997 9.41009 12.256C9.56637 12.4122 9.77833 12.5 9.99935 12.5ZM15.8327 2.50004H14.9993V1.66671C14.9993 1.44569 14.9116 1.23373 14.7553 1.07745C14.599 0.921171 14.387 0.833374 14.166 0.833374C13.945 0.833374 13.733 0.921171 13.5768 1.07745C13.4205 1.23373 13.3327 1.44569 13.3327 1.66671V2.50004H6.66602V1.66671C6.66602 1.44569 6.57822 1.23373 6.42194 1.07745C6.26566 0.921171 6.0537 0.833374 5.83268 0.833374C5.61167 0.833374 5.39971 0.921171 5.24343 1.07745C5.08715 1.23373 4.99935 1.44569 4.99935 1.66671V2.50004H4.16602C3.50297 2.50004 2.86709 2.76343 2.39825 3.23227C1.92941 3.70111 1.66602 4.337 1.66602 5.00004V16.6667C1.66602 17.3298 1.92941 17.9656 2.39825 18.4345C2.86709 18.9033 3.50297 19.1667 4.16602 19.1667H15.8327C16.4957 19.1667 17.1316 18.9033 17.6004 18.4345C18.0693 17.9656 18.3327 17.3298 18.3327 16.6667V5.00004C18.3327 4.337 18.0693 3.70111 17.6004 3.23227C17.1316 2.76343 16.4957 2.50004 15.8327 2.50004ZM16.666 16.6667C16.666 16.8877 16.5782 17.0997 16.4219 17.256C16.2657 17.4122 16.0537 17.5 15.8327 17.5H4.16602C3.945 17.5 3.73304 17.4122 3.57676 17.256C3.42048 17.0997 3.33268 16.8877 3.33268 16.6667V9.16671H16.666V16.6667ZM16.666 7.50004H3.33268V5.00004C3.33268 4.77903 3.42048 4.56707 3.57676 4.41079C3.73304 4.25451 3.945 4.16671 4.16602 4.16671H4.99935V5.00004C4.99935 5.22105 5.08715 5.43302 5.24343 5.5893C5.39971 5.74558 5.61167 5.83337 5.83268 5.83337C6.0537 5.83337 6.26566 5.74558 6.42194 5.5893C6.57822 5.43302 6.66602 5.22105 6.66602 5.00004V4.16671H13.3327V5.00004C13.3327 5.22105 13.4205 5.43302 13.5768 5.5893C13.733 5.74558 13.945 5.83337 14.166 5.83337C14.387 5.83337 14.599 5.74558 14.7553 5.5893C14.9116 5.43302 14.9993 5.22105 14.9993 5.00004V4.16671H15.8327C16.0537 4.16671 16.2657 4.25451 16.4219 4.41079C16.5782 4.56707 16.666 4.77903 16.666 5.00004V7.50004ZM5.83268 12.5C5.9975 12.5 6.15862 12.4512 6.29566 12.3596C6.4327 12.268 6.53951 12.1379 6.60258 11.9856C6.66566 11.8333 6.68216 11.6658 6.65 11.5041C6.61785 11.3425 6.53848 11.194 6.42194 11.0775C6.30539 10.9609 6.15691 10.8815 5.99526 10.8494C5.83361 10.8172 5.66605 10.8337 5.51378 10.8968C5.36151 10.9599 5.23136 11.0667 5.13979 11.2037C5.04822 11.3408 4.99935 11.5019 4.99935 11.6667C4.99935 11.8877 5.08715 12.0997 5.24343 12.256C5.39971 12.4122 5.61167 12.5 5.83268 12.5ZM5.83268 15.8334C5.9975 15.8334 6.15862 15.7845 6.29566 15.6929C6.4327 15.6014 6.53951 15.4712 6.60258 15.3189C6.66566 15.1667 6.68216 14.9991 6.65 14.8375C6.61785 14.6758 6.53848 14.5273 6.42194 14.4108C6.30539 14.2942 6.15691 14.2149 5.99526 14.1827C5.83361 14.1506 5.66605 14.1671 5.51378 14.2301C5.36151 14.2932 5.23136 14.4 5.13979 14.5371C5.04822 14.6741 4.99935 14.8352 4.99935 15C4.99935 15.2211 5.08715 15.433 5.24343 15.5893C5.39971 15.7456 5.61167 15.8334 5.83268 15.8334Z" fill="black"/>
</svg>
