<svg width="235" height="37" fill="none" xmlns="http://www.w3.org/2000/svg"><path d="m7.168 22.31-4.5 2.692 4.5 2.916V22.31Z" fill="#0A0A0A"/><path d="m7.168 22.31 4.5 2.692-4.5 2.916V22.31Z" fill="#2E58A1"/><path d="M16.31 22.31 20.81 25l-4.5 2.916V22.31Z" fill="#0A0A0A"/><path d="M16.31 22.31 11.81 25l4.5 2.916V22.31Z" fill="#2E58A1"/><path d="m7.168 28.586-4.5 2.692 4.5 2.916v-5.608Z" fill="#0A0A0A"/><path d="m7.168 28.586 4.5 2.692-4.5 2.916v-5.608Z" fill="#2E58A1"/><path d="m16.31 28.586 4.5 2.692-4.5 2.916v-5.608Z" fill="#0A0A0A"/><path d="m16.31 28.586-4.5 2.691 4.5 2.917v-5.608Z" fill="#2E58A1"/><path d="m11.736 7.158 2.703-1.555 2.703-1.556V10.27l-2.703-1.556-2.703-1.556Z" fill="#FAFAFA"/><path d="m17.143 10.27 2.703-1.556 2.702-1.555v6.221l-2.702-1.555-2.703-1.555ZM6.331 10.27 3.628 8.716.926 7.16V13.382l2.702-1.556 2.703-1.555Z" fill="#0A0A0A"/><path d="m.926 7.159 2.703-1.556 2.703-1.555V10.27L3.629 8.716.926 7.159ZM.926 13.381l2.703-1.555 2.703-1.556v6.222l-2.703-1.555L.926 13.38Z" fill="#2E58A1"/><path d="M11.737 7.159 9.034 5.603 6.332 4.048v6.223l2.702-1.556 2.703-1.556ZM11.736 13.38l2.703-1.555 2.703-1.555V16.492l-2.703-1.556-2.703-1.555Z" fill="#F7D747"/><path d="m11.737 13.382-2.703-1.556-2.702-1.556V16.492l2.702-1.555 2.703-1.555Z" fill="#FAFAFA"/><path d="m22.549 7.159-2.703-1.556-2.703-1.555V10.27l2.703-1.555 2.703-1.556ZM22.549 13.38l-2.703-1.555-2.703-1.555v6.221l2.703-1.555 2.703-1.556ZM14.44 2.492l-2.536-1.459a.335.335 0 0 0-.334 0l-2.536 1.46-2.702 1.555 2.702 1.555 2.703 1.556 2.703-1.556 2.702-1.555-2.702-1.556Z" fill="#2E58A1"/><path d="M14.441 8.714 11.74 7.16 9.036 8.714 6.334 10.27l2.702 1.555 2.703 1.556 2.702-1.556 2.704-1.555-2.704-1.556Z" fill="#2E58A1"/><path d="M14.441 14.937 11.74 13.38l-2.703 1.556-2.702 1.555 2.702 1.556 2.703 1.556 2.702-1.556 2.704-1.556-2.704-1.555Z" fill="#2E58A1"/><path d="M11.146 18.841v17.171l.613.982.565-.982v-17.17h-1.178Z" fill="#2E58A1"/><path d="M38.872 31.014c-1.64 0-3.097-.335-4.37-1.005a7.102 7.102 0 0 1-2.913-2.838c-.67-1.222-1.005-2.654-1.005-4.295v-9.82h4.722v9.57c0 .82.134 1.514.402 2.084.284.57.695 1.005 1.23 1.306.536.301 1.18.452 1.934.452.77 0 1.424-.15 1.96-.452a2.853 2.853 0 0 0 1.205-1.306c.285-.57.427-1.264.427-2.085v-9.57h4.722v9.821c0 1.641-.343 3.073-1.03 4.295-.67 1.223-1.64 2.169-2.913 2.838-1.256.67-2.713 1.005-4.37 1.005ZM51.039 30.637V12.805h4.094v11.302h.728l3.793-6.028h4.295l-3.893 5.953 4.244 6.605h-4.747l-3.742-6.028h-.678v6.028h-4.094ZM66.491 30.637V18.08h4.094v4.446c.184-1.306.637-2.411 1.357-3.316.72-.92 1.682-1.381 2.888-1.381.87 0 1.574.192 2.11.578.552.368.954.904 1.205 1.607.251.703.377 1.582.377 2.637v1.357h-4.094v-.528c0-.586-.16-1.03-.477-1.331-.302-.318-.712-.477-1.23-.477a1.91 1.91 0 0 0-1.106.326c-.318.201-.57.494-.753.88a2.93 2.93 0 0 0-.277 1.28v6.48h-4.094ZM82.639 30.914c-1.072 0-1.95-.26-2.637-.78-.687-.535-1.03-1.305-1.03-2.31 0-.97.318-1.724.955-2.26a5.299 5.299 0 0 1 2.235-1.105 21.407 21.407 0 0 1 2.863-.452c.787-.05 1.407-.16 1.859-.327.452-.167.678-.494.678-.98 0-.535-.193-.937-.578-1.205-.368-.285-.82-.427-1.356-.427-.67 0-1.214.184-1.633.552-.401.352-.628.846-.678 1.482h-3.792c.033-1.122.334-2.076.904-2.863a5.264 5.264 0 0 1 2.235-1.808 7.632 7.632 0 0 1 3.04-.603c1.07 0 2.034.2 2.888.603a4.617 4.617 0 0 1 2.009 1.783c.486.77.728 1.691.728 2.763v4.094h1.331v3.566h-5.073v-4.671c-.251 1.44-.795 2.628-1.633 3.566-.82.921-1.925 1.382-3.315 1.382Zm2.085-3.115c.485 0 .946-.159 1.381-.477a3.53 3.53 0 0 0 1.055-1.256c.268-.519.402-1.046.402-1.582l.025-.704a1.645 1.645 0 0 1-.653.402c-.251.067-.603.143-1.055.226a.192.192 0 0 0-.075.026h-.076c-.837.117-1.481.318-1.934.602-.435.268-.653.695-.653 1.281 0 .503.143.88.427 1.13.302.235.687.352 1.156.352ZM95.36 30.637V18.08h4.094v12.558H95.36Zm1.934-13.839-2.461-4.872h5.174l-2.462 4.872h-.25ZM103.307 30.637V18.08h4.094V22.6c.201-1.44.695-2.595 1.482-3.466.804-.87 1.783-1.306 2.939-1.306.887 0 1.674.234 2.361.703.686.47 1.213 1.13 1.582 1.984.368.838.552 1.8.552 2.889v7.233h-4.144v-6.555c-.017-.737-.243-1.331-.678-1.783-.435-.452-1.005-.678-1.708-.678-.435 0-.837.108-1.205.326-.369.218-.662.51-.879.88a2.58 2.58 0 0 0-.302 1.255v6.555h-4.094ZM122.349 30.914c-1.071 0-1.95-.26-2.637-.78-.686-.535-1.03-1.305-1.03-2.31 0-.97.318-1.724.955-2.26a5.295 5.295 0 0 1 2.235-1.105 21.4 21.4 0 0 1 2.863-.452c.787-.05 1.407-.16 1.859-.327.452-.167.678-.494.678-.98 0-.535-.193-.937-.578-1.205-.368-.285-.82-.427-1.356-.427-.67 0-1.214.184-1.632.552-.402.352-.628.846-.679 1.482h-3.792c.033-1.122.335-2.076.904-2.863a5.26 5.26 0 0 1 2.235-1.808 7.634 7.634 0 0 1 3.039-.603c1.072 0 2.035.2 2.889.603a4.613 4.613 0 0 1 2.009 1.783c.486.77.728 1.691.728 2.763v4.094h1.332v3.566h-5.074v-4.671c-.251 1.44-.795 2.628-1.632 3.566-.821.921-1.926 1.382-3.316 1.382Zm2.085-3.115c.485 0 .946-.159 1.381-.477a3.523 3.523 0 0 0 1.055-1.256c.268-.519.402-1.046.402-1.582l.025-.704a1.646 1.646 0 0 1-.653.402 14.77 14.77 0 0 1-1.055.226.188.188 0 0 0-.075.026h-.075c-.838.117-1.482.318-1.934.602-.436.268-.653.695-.653 1.281 0 .503.142.88.427 1.13.301.235.686.352 1.155.352ZM141.701 30.637V13.056h4.672v8.54h1.105l5.551-8.54h5.123l-5.475 8.414 5.927 9.167h-5.601l-5.55-8.54h-1.08v8.54h-4.672ZM165.694 30.888c-1.289 0-2.453-.276-3.491-.828-1.038-.553-1.859-1.306-2.461-2.26-.603-.972-.905-2.077-.905-3.316 0-1.29.302-2.437.905-3.441a6.352 6.352 0 0 1 2.486-2.361c1.055-.57 2.219-.854 3.491-.854 1.273 0 2.42.276 3.441.829a6.099 6.099 0 0 1 2.411 2.336c.586.988.88 2.118.88 3.39v.226h-9.57c.034.503.176.955.427 1.357.268.401.611.72 1.03.954a2.78 2.78 0 0 0 1.381.352c.452 0 .854-.084 1.206-.252.368-.167.636-.385.804-.652h4.37c-.05.703-.343 1.406-.879 2.11-.536.686-1.281 1.263-2.236 1.732-.954.452-2.051.678-3.29.678Zm2.914-6.781a2.55 2.55 0 0 0-.427-1.356 2.551 2.551 0 0 0-1.005-.93 2.827 2.827 0 0 0-1.406-.351c-.519 0-.988.117-1.407.352a2.74 2.74 0 0 0-1.03.929 2.885 2.885 0 0 0-.427 1.356h5.702ZM180.946 30.989c-2.06 0-3.717-.452-4.973-1.356-1.256-.921-1.934-2.194-2.035-3.818h4.245c.1.603.377 1.063.829 1.381.469.319 1.063.478 1.783.478.419 0 .795-.05 1.13-.151.352-.1.628-.26.829-.477.218-.235.327-.52.327-.854 0-.318-.101-.578-.302-.779-.201-.2-.519-.368-.954-.502-.419-.134-.98-.251-1.683-.352a1.99 1.99 0 0 0-.327-.025c-.1-.017-.209-.034-.326-.05-1.222-.15-2.202-.344-2.939-.578-.72-.234-1.255-.544-1.607-.93-.335-.401-.502-.912-.502-1.531 0-.754.242-1.415.728-1.985.502-.569 1.197-.996 2.085-1.28.887-.302 1.908-.453 3.064-.453 2.026 0 3.625.461 4.797 1.382 1.189.92 1.817 2.218 1.884 3.893h-4.044c-.017-.636-.251-1.114-.703-1.432-.452-.335-.988-.502-1.608-.502-.586 0-1.088.134-1.507.402-.418.268-.628.645-.628 1.13 0 .285.093.536.277.754.201.2.502.376.904.527.418.15.971.276 1.658.377.134.017.259.033.376.05l.402.05a.824.824 0 0 0 .201.025c.067 0 .134.009.201.025 1.072.134 1.934.335 2.587.603.653.251 1.13.57 1.432.955.301.385.452.862.452 1.431 0 .737-.251 1.382-.754 1.934-.502.536-1.214.946-2.135 1.23-.921.286-1.975.428-3.164.428ZM189.644 30.637V12.805h4.094v11.302h.729l3.792-6.028h4.295l-3.893 5.953 4.245 6.605h-4.747l-3.743-6.028h-.678v6.028h-4.094ZM209.341 30.888c-.887 0-1.674-.234-2.361-.703-.686-.469-1.213-1.122-1.582-1.959-.368-.854-.552-1.825-.552-2.913v-7.234h4.144l.025 6.555c0 .72.218 1.315.653 1.784.435.452 1.005.678 1.708.678.435 0 .837-.109 1.205-.327.369-.217.653-.51.854-.879.218-.368.327-.787.327-1.256V18.08h4.094v12.558h-4.094v-4.52c-.201 1.44-.703 2.595-1.507 3.465-.787.871-1.758 1.306-2.914 1.306ZM227.278 30.989c-2.059 0-3.717-.452-4.973-1.356-1.255-.921-1.934-2.194-2.034-3.818h4.245c.1.603.376 1.063.828 1.381.469.319 1.064.478 1.784.478.418 0 .795-.05 1.13-.151.352-.1.628-.26.829-.477.217-.235.326-.52.326-.854 0-.318-.1-.578-.301-.779-.201-.2-.519-.368-.955-.502-.418-.134-.979-.251-1.682-.352a2.007 2.007 0 0 0-.327-.025c-.1-.017-.209-.034-.326-.05-1.223-.15-2.202-.344-2.939-.578-.72-.234-1.256-.544-1.607-.93-.335-.401-.503-.912-.503-1.531 0-.754.243-1.415.729-1.985.502-.569 1.197-.996 2.084-1.28.888-.302 1.909-.453 3.064-.453 2.026 0 3.626.461 4.798 1.382 1.189.92 1.816 2.218 1.883 3.893h-4.043c-.017-.636-.252-1.114-.704-1.432-.452-.335-.988-.502-1.607-.502-.586 0-1.088.134-1.507.402-.419.268-.628.645-.628 1.13 0 .285.092.536.276.754.201.2.503.376.905.527.418.15.971.276 1.657.377.134.017.26.033.377.05l.402.05a.824.824 0 0 0 .201.025c.067 0 .134.009.201.025 1.071.134 1.934.335 2.587.603.653.251 1.13.57 1.431.955.302.385.452.862.452 1.431 0 .737-.251 1.382-.753 1.934-.502.536-1.214.946-2.135 1.23-.921.286-1.976.428-3.165.428Z" fill="#0A0A0A"/><path d="m97.294 16.798-2.461-4.872h5.174l-2.462 4.872h-.25Z" fill="#2E58A1"/></svg>
