<svg xmlns="http://www.w3.org/2000/svg" width="183" height="28" fill="none"><path fill="#0A0A0A" d="m5.8 16.575-3.501 2.093 3.5 2.268v-4.361Z"/><path fill="#2E58A1" d="m5.799 16.575 3.5 2.093-3.5 2.268v-4.361Z"/><path fill="#0A0A0A" d="m12.91 16.574 3.5 2.094-3.5 2.268v-4.362Z"/><path fill="#2E58A1" d="m12.91 16.574-3.5 2.094 3.5 2.268v-4.362Z"/><path fill="#0A0A0A" d="m5.8 21.456-3.501 2.093 3.5 2.268v-4.361Z"/><path fill="#2E58A1" d="m5.799 21.456 3.5 2.093-3.5 2.268v-4.361Z"/><path fill="#0A0A0A" d="m12.91 21.456 3.5 2.093-3.5 2.268v-4.361Z"/><path fill="#2E58A1" d="m12.91 21.456-3.5 2.093 3.5 2.268v-4.361Z"/><path fill="#FAFAFA" d="m9.353 4.79 2.101-1.21 2.103-1.21v4.84L11.454 6 9.353 4.79Z"/><path fill="#0A0A0A" d="M13.557 7.21 15.659 6l2.102-1.21v4.84l-2.102-1.21-2.102-1.21ZM5.147 7.21 3.045 6 .943 4.79v4.84l2.102-1.21 2.102-1.21Z"/><path fill="#2E58A1" d="m.943 4.79 2.103-1.21 2.102-1.21v4.84L3.046 6 .943 4.79ZM.943 9.63l2.103-1.21 2.102-1.21v4.84l-2.102-1.21L.943 9.63Z"/><path fill="#F7D747" d="M9.354 4.79 7.25 3.58 5.15 2.37v4.84L7.251 6l2.103-1.21ZM9.353 9.63l2.101-1.21 2.103-1.21v4.84l-2.103-1.21-2.101-1.21Z"/><path fill="#FAFAFA" d="M9.354 9.63 7.25 8.42 5.15 7.21v4.84l2.102-1.21 2.103-1.21Z"/><path fill="#2E58A1" d="M17.761 4.79 15.66 3.58l-2.102-1.21v4.84L15.659 6l2.102-1.21ZM17.761 9.63 15.66 8.42l-2.102-1.21v4.839l2.102-1.21 2.102-1.21Z"/><path fill="#2E58A1" d="M11.455 1.16 9.483.027a.26.26 0 0 0-.26 0L7.252 1.16 5.15 2.37l2.102 1.21 2.103 1.21 2.101-1.21 2.103-1.21-2.103-1.21ZM11.455 6 9.354 4.79 7.25 6 5.15 7.21l2.102 1.21 2.103 1.21 2.101-1.21 2.103-1.21L11.455 6ZM11.455 10.84 9.354 9.63 7.25 10.84 5.15 12.05l2.102 1.21 2.103 1.21 2.101-1.21 2.103-1.21-2.103-1.21Z"/><path fill="#2E58A1" d="M8.894 13.877v13.355l.476.763.44-.763V13.877h-.916Z"/><path fill="#0A0A0A" d="M30.456 23.344c-1.276 0-2.409-.26-3.399-.781a5.524 5.524 0 0 1-2.266-2.208c-.52-.95-.781-2.064-.781-3.34V9.377h3.672v7.443c0 .638.105 1.178.313 1.62.221.444.54.782.957 1.017.417.234.918.351 1.504.351.6 0 1.107-.117 1.524-.351.417-.235.73-.573.938-1.016.221-.443.332-.983.332-1.621V9.377h3.672v7.638c0 1.276-.267 2.39-.8 3.34a5.372 5.372 0 0 1-2.267 2.208c-.976.52-2.11.781-3.399.781ZM39.92 23.051V9.181h3.183v8.791h.567l2.95-4.688h3.34l-3.028 4.63 3.301 5.137h-3.692l-2.91-4.688h-.528v4.688H39.92ZM51.938 23.051v-9.767h3.184v3.457c.143-1.015.495-1.875 1.055-2.578.56-.716 1.309-1.075 2.246-1.075.677 0 1.224.15 1.641.45.43.286.742.703.938 1.25.195.547.293 1.23.293 2.051v1.055H58.11v-.41c0-.456-.124-.801-.371-1.036-.235-.247-.554-.37-.958-.37-.325 0-.612.084-.86.253a1.6 1.6 0 0 0-.585.684c-.144.3-.215.631-.215.996v5.04h-3.184ZM64.497 23.266c-.834 0-1.517-.202-2.051-.605-.534-.417-.801-1.016-.801-1.798 0-.755.247-1.341.742-1.758a4.121 4.121 0 0 1 1.739-.86 16.657 16.657 0 0 1 2.227-.351c.612-.04 1.094-.124 1.445-.254.352-.13.528-.384.528-.762 0-.417-.15-.73-.45-.938-.286-.22-.638-.332-1.054-.332-.521 0-.945.144-1.27.43-.313.274-.489.658-.528 1.153h-2.95c.027-.873.261-1.615.704-2.227a4.095 4.095 0 0 1 1.739-1.407 5.938 5.938 0 0 1 2.363-.469c.834 0 1.583.157 2.247.47a3.591 3.591 0 0 1 1.563 1.386c.377.6.566 1.315.566 2.149v3.184h1.035v2.774h-3.946v-3.633c-.195 1.12-.618 2.044-1.27 2.774-.638.716-1.497 1.074-2.578 1.074Zm1.621-2.422c.378 0 .736-.124 1.075-.371.338-.248.612-.573.82-.977.209-.404.313-.814.313-1.23l.02-.548a1.28 1.28 0 0 1-.508.313c-.196.052-.47.11-.821.175a.15.15 0 0 0-.059.02H66.9c-.651.091-1.153.248-1.504.469-.339.208-.508.54-.508.996 0 .39.11.684.332.88.234.182.534.273.898.273ZM74.391 23.051v-9.767h3.184v9.767h-3.184Zm1.504-10.764-1.914-3.79h4.024l-1.914 3.79h-.195ZM80.572 23.051v-9.767h3.184V16.8c.157-1.12.54-2.019 1.153-2.696.625-.677 1.387-1.016 2.286-1.016.69 0 1.302.183 1.836.547.534.365.944.88 1.23 1.544.287.65.43 1.4.43 2.246v5.626h-3.223v-5.098c-.013-.573-.189-1.036-.527-1.387-.339-.352-.782-.528-1.329-.528a1.81 1.81 0 0 0-.937.254c-.287.17-.515.397-.684.684a2.006 2.006 0 0 0-.235.977v5.098h-3.184ZM95.383 23.266c-.834 0-1.517-.202-2.051-.605-.534-.417-.801-1.016-.801-1.798 0-.755.247-1.341.742-1.758a4.122 4.122 0 0 1 1.739-.86 16.656 16.656 0 0 1 2.227-.351c.612-.04 1.093-.124 1.445-.254.352-.13.528-.384.528-.762 0-.417-.15-.73-.45-.938-.286-.22-.638-.332-1.055-.332-.52 0-.944.144-1.27.43-.312.274-.488.658-.527 1.153h-2.95c.027-.873.26-1.615.704-2.227a4.095 4.095 0 0 1 1.738-1.407 5.938 5.938 0 0 1 2.364-.469c.834 0 1.582.157 2.247.47a3.587 3.587 0 0 1 1.562 1.386c.378.6.567 1.315.567 2.149v3.184h1.035v2.774h-3.946v-3.633c-.195 1.12-.618 2.044-1.27 2.774-.638.716-1.497 1.074-2.578 1.074Zm1.621-2.422c.378 0 .736-.124 1.075-.371.338-.248.612-.573.82-.977.208-.404.313-.814.313-1.23l.02-.548a1.28 1.28 0 0 1-.509.313c-.195.052-.469.11-.82.175a.15.15 0 0 0-.059.02h-.058c-.652.091-1.153.248-1.505.469-.338.208-.508.54-.508.996 0 .39.111.684.333.88.234.182.534.273.898.273ZM110.434 23.051V9.377h3.634v6.642h.859l4.317-6.642h3.986l-4.259 6.544 4.61 7.13h-4.356l-4.317-6.642h-.84v6.642h-3.634ZM129.096 23.247c-1.003 0-1.908-.215-2.716-.645a4.993 4.993 0 0 1-1.914-1.758c-.469-.756-.703-1.615-.703-2.579 0-1.003.234-1.895.703-2.676a4.94 4.94 0 0 1 1.934-1.836c.82-.443 1.725-.665 2.715-.665.99 0 1.882.215 2.676.645a4.746 4.746 0 0 1 1.876 1.817c.456.768.683 1.647.683 2.637v.176h-7.442c.026.39.136.742.332 1.055.208.312.475.56.801.742.325.182.683.273 1.074.273.352 0 .664-.065.938-.195.286-.13.495-.3.625-.508h3.399c-.039.547-.267 1.094-.684 1.641-.417.534-.996.983-1.738 1.348-.743.352-1.596.527-2.559.527Zm2.266-5.275a1.978 1.978 0 0 0-.333-1.055 1.981 1.981 0 0 0-.781-.723 2.198 2.198 0 0 0-1.094-.273 2.2 2.2 0 0 0-1.094.273c-.325.17-.592.41-.801.723a2.242 2.242 0 0 0-.332 1.055h4.435ZM140.958 23.325c-1.602 0-2.891-.352-3.868-1.055-.977-.716-1.504-1.706-1.582-2.97h3.301c.078.47.293.827.645 1.075.364.247.827.371 1.387.371.325 0 .618-.039.879-.117.273-.078.488-.202.644-.371a.938.938 0 0 0 .254-.665.82.82 0 0 0-.234-.605c-.156-.156-.404-.287-.742-.39a8.333 8.333 0 0 0-1.309-.274 1.55 1.55 0 0 0-.254-.02 11.115 11.115 0 0 0-.254-.039c-.951-.117-1.713-.267-2.286-.45-.56-.181-.977-.422-1.25-.722-.261-.313-.391-.71-.391-1.192 0-.586.189-1.1.567-1.543.39-.443.931-.775 1.621-.996.69-.235 1.485-.352 2.383-.352 1.576 0 2.82.358 3.732 1.075.924.716 1.413 1.725 1.465 3.028h-3.145c-.013-.495-.196-.866-.547-1.114-.352-.26-.769-.39-1.251-.39-.455 0-.846.104-1.172.312-.325.208-.488.501-.488.879 0 .221.072.417.215.586.156.156.39.293.703.41.326.117.755.215 1.289.293.105.013.202.026.293.04l.313.038c.052.013.104.02.156.02.052 0 .104.006.156.02.834.104 1.505.26 2.013.468.507.196.879.443 1.113.743.234.3.352.67.352 1.113 0 .573-.196 1.075-.586 1.504-.391.417-.945.736-1.661.958-.716.22-1.537.332-2.461.332ZM147.723 23.051V9.181h3.185v8.791h.566l2.95-4.688h3.34l-3.028 4.63 3.302 5.137h-3.692l-2.911-4.688h-.527v4.688h-3.185ZM163.043 23.247c-.69 0-1.302-.183-1.836-.547-.534-.365-.944-.873-1.231-1.524-.286-.664-.429-1.42-.429-2.266v-5.626h3.223l.019 5.098c0 .56.17 1.023.508 1.387.339.352.782.528 1.329.528.338 0 .651-.085.937-.254.287-.17.508-.397.665-.684.169-.286.253-.612.253-.977v-5.098h3.185v9.767h-3.185v-3.516c-.156 1.12-.547 2.018-1.172 2.696-.612.677-1.367 1.015-2.266 1.015ZM176.994 23.325c-1.602 0-2.891-.352-3.868-1.055-.976-.716-1.504-1.706-1.582-2.97h3.301c.079.47.293.827.645 1.075.365.247.827.371 1.387.371.326 0 .619-.039.879-.117a1.36 1.36 0 0 0 .645-.371.942.942 0 0 0 .254-.665.817.817 0 0 0-.235-.605c-.156-.156-.403-.287-.742-.39a8.333 8.333 0 0 0-1.309-.274 1.55 1.55 0 0 0-.254-.02 11.115 11.115 0 0 0-.254-.039c-.95-.117-1.712-.267-2.285-.45-.56-.181-.977-.422-1.251-.722-.26-.313-.39-.71-.39-1.192 0-.586.189-1.1.566-1.543.391-.443.931-.775 1.622-.996.69-.235 1.484-.352 2.383-.352 1.576 0 2.819.358 3.731 1.075.925.716 1.413 1.725 1.465 3.028h-3.145c-.013-.495-.195-.866-.547-1.114-.352-.26-.768-.39-1.25-.39-.456 0-.847.104-1.172.312-.326.208-.489.501-.489.879 0 .221.072.417.215.586.157.156.391.293.704.41.325.117.755.215 1.289.293.104.013.202.026.293.04l.312.038a.65.65 0 0 0 .157.02c.052 0 .104.006.156.02.833.104 1.504.26 2.012.468.508.196.879.443 1.114.743.234.3.351.67.351 1.113 0 .573-.195 1.075-.586 1.504-.391.417-.944.736-1.66.958-.717.22-1.537.332-2.462.332Z"/><path fill="#2E58A1" d="m75.895 12.287-1.914-3.79h4.024l-1.914 3.79h-.195Z"/></svg>