<svg xmlns="http://www.w3.org/2000/svg" width="220" height="60" fill="none"><g fill="#000" fill-opacity=".3" clip-path="url(#a)"><path d="M94.234 20.248h-8.77v20.72H79.59v-20.72h-8.77v-4.215h23.414v4.215ZM111.339 28.852v12.116h-4.909v-1.861c-1.343 1.545-3.692 2.458-6.924 2.458-4.405 0-7.678-1.721-7.678-5.127 0-3.793 3.567-5.48 9.273-6.322l5.035-.773v-.42c0-1.722-1.51-2.74-4.028-2.74a7.326 7.326 0 0 0-3.357.667 20.348 20.348 0 0 0-3.315 2.248l-3.44-2.634c1.177-1.283 2.698-2.317 4.44-3.018a14.407 14.407 0 0 1 5.588-1.021c6 0 9.315 2.529 9.315 6.427Zm-5.203 4.811V32.61l-3.608.632c-3.65.667-5.371 1.334-5.371 2.88 0 1.123 1.217 1.79 3.273 1.79 3.146 0 5.706-1.334 5.706-4.249ZM121.853 40.968h-5.455V16.033h5.455v24.935ZM132.617 40.968h-5.455V16.033h5.455v24.935ZM143.378 20.318h-5.454v-4.285h5.454v4.285Zm0 20.65h-5.454V23.022h5.454v17.946ZM167.903 28.676v12.292h-5.454V30.046c0-2.388-1.427-3.688-3.987-3.688a4.973 4.973 0 0 0-1.717.272 4.344 4.344 0 0 0-1.441.828c-.407.357-.72.78-.921 1.244-.2.464-.283.957-.242 1.45v10.816h-5.455V23.022h5.077v2.037c.725-.859 1.698-1.55 2.827-2.01a8.722 8.722 0 0 1 3.635-.624c4.867 0 7.678 2.493 7.678 6.251ZM192.179 28.676v12.292h-5.455V30.046c0-2.388-1.426-3.688-3.986-3.688a4.98 4.98 0 0 0-1.718.272 4.352 4.352 0 0 0-1.441.828c-.406.357-.72.78-.92 1.244-.2.464-.283.957-.243 1.45v10.816h-5.455V23.022h5.078v2.037c.725-.859 1.697-1.55 2.827-2.01a8.714 8.714 0 0 1 3.634-.624c4.868 0 7.679 2.493 7.679 6.251ZM49.565 24.922c-3.346-.764-5.02-1.718-8.86-2.29-3.916-.605-7.566-.414-12.205 0v3.88c5.285-.667 12.89-1.59 18.708-.7 4.753.732 5.17 2.196 9.506 2.991v-3.022a41.637 41.637 0 0 1-7.149-.86ZM56.714 30.712c-3.308-1.909-6.388-2.004-9.544-1.972-6.35.095-11.141.764-18.67 1.813v3.105c-.003.331.016.662.056.991 5.49-.822 10.18-1.392 12.188-1.646 5.742-.763 11.673-1.527 15.97-.922v-1.369ZM29.844 37.965c.27.396.574.774.91 1.134 3.134 3.32 11.558 5.944 11.853 6.026.294-.082 8.718-2.706 11.853-6.026a8.873 8.873 0 0 0 1.547-2.242 8.146 8.146 0 0 0 .585-1.786c.032-.17.055-.328.073-.476-.824.091-26.128 3.284-26.821 3.37ZM40.363 18.368c-3.574-.318-6.197-1.05-11.863-1.75v2.609c3.415-.115 6.83.229 10.114 1.018 1.103.255 3.27.795 4.107.986C47.13 22.25 53.1 22.25 56.714 22.6v-3.054c-5.134-.764-12.472-.827-16.35-1.177ZM42.607 11.877A67.193 67.193 0 0 0 28.5 13.246v1.209l28.214 2.036v-3.245a67.195 67.195 0 0 0-14.107-1.369Z"/></g><defs><clipPath id="a"><path fill="#fff" d="M28.5 11.875h163.875v33.25H28.5z"/></clipPath></defs></svg>