<svg width="48" height="48" viewBox="0 0 48 48" fill="none" xmlns="http://www.w3.org/2000/svg">
<g clip-path="url(#clip0_53_1371)">
<path d="M16.8835 1.21108C15.4347 1.58668 14.3401 2.19837 13.2563 3.23931C12.2368 4.20514 11.55 5.3534 11.1851 6.68409C10.9383 7.62845 10.9383 9.39913 11.1851 10.3328C12.0544 13.5522 15.1987 16.8253 20.2853 19.8193C21.7019 20.6456 23.4726 21.4934 23.8052 21.4934C24.374 21.4934 27.4432 19.8408 29.5465 18.4028C33.3454 15.8058 35.6956 13.0478 36.4254 10.3328C36.6722 9.39913 36.6722 7.62845 36.4254 6.68409C35.7815 4.29099 33.7747 2.2091 31.2636 1.36132C30.5875 1.12523 30.1475 1.06084 29.1387 1.01792C27.1856 0.942795 26.0374 1.24327 24.5564 2.23056L23.8052 2.73494L23.0755 2.24129C22.2063 1.6618 21.6375 1.41498 20.6824 1.16815C19.7166 0.932064 17.8708 0.942795 16.8835 1.21108Z" fill="#F7D747"/>
<path d="M44.7488 21.4505C44.5127 21.5471 42.6347 23.3393 39.7587 26.2153C34.9617 31.0015 34.7256 31.2054 33.8027 31.2698C33.5989 31.2805 30.6155 31.2805 27.1707 31.2698L20.9143 31.259L20.6568 30.9907C20.3349 30.6795 20.3134 30.1966 20.5924 29.8532L20.7963 29.5957L27.3425 29.542L33.8886 29.4883L34.1783 29.2201C34.4574 28.9625 34.4681 28.9089 34.4252 28.1898C34.3071 26.2797 32.7189 24.4768 30.8194 24.0797C30.4438 24.0046 28.1902 23.9617 24.1123 23.9617C17.1369 23.9617 16.9867 23.9831 15.3018 24.8417C14.497 25.2602 14.175 25.5499 11.02 28.6728L7.60742 32.0532L11.8785 36.3242C14.2287 38.6744 16.1925 40.5953 16.2355 40.5953C16.2891 40.5953 16.5681 40.3914 16.8471 40.1339C17.4374 39.5973 18.3495 39.0929 19.2617 38.7925C19.648 38.653 22.7709 38.1593 27.1493 37.5369C31.1306 36.9681 34.7042 36.4316 35.0798 36.3457C36.5607 36.013 36.6466 35.9379 42.3557 30.2503C46.2297 26.387 47.6892 24.8631 47.8179 24.5519C48.4618 22.9959 47.3672 21.2681 45.7146 21.2788C45.3927 21.2896 44.9527 21.3647 44.7488 21.4505Z" fill="#FAFAFA"/>
<path d="M1.63117 32.6863C0.729735 33.5985 0 34.4141 0 34.5214C0 34.618 0.0643883 34.8326 0.150239 34.9936C0.236091 35.1545 3.17649 38.1486 6.67493 41.6363C12.9421 47.8927 13.0494 48 13.4679 48C13.865 48 13.9723 47.9249 15.4747 46.4118C16.9127 44.9845 17.0629 44.7913 17.0629 44.4586C17.0629 44.1045 16.6444 43.6645 10.5382 37.5691C4.37841 31.3985 4.00281 31.0444 3.63794 31.0444C3.29454 31.0444 3.12283 31.1839 1.63117 32.6863Z" fill="#FAFAFA"/>
</g>
<defs>
<clipPath id="clip0_53_1371">
<rect width="48" height="48" fill="white"/>
</clipPath>
</defs>
</svg>
