<svg width="72" height="72" viewBox="0 0 72 72" fill="none" xmlns="http://www.w3.org/2000/svg">
<path d="M26.9295 5.48437C25.0311 5.97656 23.5967 6.77812 22.1764 8.14219C20.8404 9.40781 19.9404 10.9125 19.4623 12.6562C19.1389 13.8937 19.1389 16.2141 19.4623 17.4375C20.6014 21.6562 24.7217 25.9453 31.3873 29.8687C33.2436 30.9516 35.5639 32.0625 35.9998 32.0625C36.7451 32.0625 40.767 29.8969 43.5232 28.0125C48.5014 24.6094 51.5811 20.9953 52.5373 17.4375C52.8607 16.2141 52.8607 13.8937 52.5373 12.6562C51.6936 9.52031 49.0639 6.79219 45.7732 5.68125C44.8873 5.37187 44.3107 5.2875 42.9889 5.23125C40.4295 5.13281 38.9248 5.52656 36.9842 6.82031L35.9998 7.48125L35.0436 6.83437C33.9045 6.075 33.1592 5.75156 31.9076 5.42812C30.642 5.11875 28.2232 5.13281 26.9295 5.48437Z" fill="#2E58A1"/>
<path d="M63.141 32.0063C62.8316 32.1328 60.3707 34.4813 56.602 38.25C50.316 44.5219 50.0066 44.7891 48.7973 44.8734C48.5301 44.8875 44.6207 44.8875 40.1066 44.8734L31.9082 44.8594L31.5707 44.5078C31.1488 44.1 31.1207 43.4672 31.4863 43.0172L31.7535 42.6797L40.3316 42.6094L48.9098 42.5391L49.2895 42.1875C49.6551 41.85 49.6691 41.7797 49.6129 40.8375C49.4582 38.3344 47.377 35.9719 44.8879 35.4516C44.3957 35.3531 41.4426 35.2969 36.0988 35.2969C26.9582 35.2969 26.7613 35.325 24.5535 36.45C23.4988 36.9984 23.077 37.3781 18.9426 41.4703L14.4707 45.9L20.0676 51.4969C23.1473 54.5766 25.7207 57.0938 25.777 57.0938C25.8473 57.0938 26.2129 56.8266 26.5785 56.4891C27.352 55.7859 28.5473 55.125 29.7426 54.7313C30.2488 54.5484 34.341 53.9016 40.0785 53.0859C45.2957 52.3406 49.9785 51.6375 50.4707 51.525C52.4113 51.0891 52.5238 50.9906 60.0051 43.5375C65.0816 38.475 66.9941 36.4781 67.1629 36.0703C68.0066 34.0313 66.5723 31.7672 64.4066 31.7813C63.9848 31.7953 63.4082 31.8938 63.141 32.0063Z" fill="#2E58A1"/>
<path d="M6.6375 46.7297C5.45625 47.925 4.5 48.9937 4.5 49.1344C4.5 49.2609 4.58437 49.5422 4.69687 49.7531C4.80937 49.9641 8.6625 53.8875 13.2469 58.4578C21.4594 66.6562 21.6 66.7969 22.1484 66.7969C22.6687 66.7969 22.8094 66.6984 24.7781 64.7156C26.6625 62.8453 26.8594 62.5922 26.8594 62.1562C26.8594 61.6922 26.3109 61.1156 18.3094 53.1281C10.2375 45.0422 9.74531 44.5781 9.26719 44.5781C8.81719 44.5781 8.59219 44.7609 6.6375 46.7297Z" fill="#2E58A1"/>
</svg>
