<svg width="48" height="48" viewBox="0 0 48 48" fill="none" xmlns="http://www.w3.org/2000/svg">
<g clip-path="url(#clip0_55_1735)">
<path d="M44.7488 21.4505C44.5127 21.5471 42.6347 23.3393 39.7587 26.2153C34.9617 31.0015 34.7256 31.2054 33.8027 31.2698C33.5989 31.2805 30.6155 31.2805 27.1707 31.2698L20.9143 31.259L20.6568 30.9907C20.3349 30.6795 20.3134 30.1966 20.5924 29.8532L20.7963 29.5957L27.3425 29.542L33.8886 29.4883L34.1783 29.2201C34.4574 28.9625 34.4681 28.9089 34.4252 28.1898C34.3071 26.2797 32.7189 24.4768 30.8194 24.0797C30.4438 24.0046 28.1902 23.9617 24.1123 23.9617C17.1369 23.9617 16.9867 23.9831 15.3018 24.8417C14.497 25.2602 14.175 25.5499 11.02 28.6728L7.60742 32.0532L11.8785 36.3242C14.2287 38.6744 16.1925 40.5953 16.2355 40.5953C16.2891 40.5953 16.5681 40.3914 16.8471 40.1339C17.4374 39.5973 18.3495 39.0929 19.2617 38.7925C19.648 38.653 22.7709 38.1593 27.1493 37.5369C31.1306 36.9681 34.7042 36.4316 35.0798 36.3457C36.5607 36.013 36.6466 35.9379 42.3557 30.2503C46.2297 26.387 47.6892 24.8631 47.8179 24.5519C48.4618 22.9959 47.3672 21.2681 45.7146 21.2788C45.3927 21.2896 44.9527 21.3647 44.7488 21.4505Z" fill="#FAFAFA"/>
<path d="M1.63117 32.6863C0.729735 33.5985 0 34.4141 0 34.5214C0 34.618 0.0643883 34.8326 0.150239 34.9936C0.236091 35.1545 3.17649 38.1486 6.67493 41.6363C12.9421 47.8927 13.0494 48 13.4679 48C13.865 48 13.9723 47.9249 15.4747 46.4118C16.9127 44.9845 17.0629 44.7913 17.0629 44.4586C17.0629 44.1045 16.6444 43.6645 10.5382 37.5691C4.37841 31.3985 4.00281 31.0444 3.63794 31.0444C3.29454 31.0444 3.12283 31.1839 1.63117 32.6863Z" fill="#FAFAFA"/>
<path d="M35 2.50231V16.5581C35 17.9374 33.9212 19.0604 32.5953 19.0604H25.7581C25.5922 19.0604 25.4345 19.1366 25.3274 19.2681L22.2666 23.04V19.6466C22.2666 19.3225 22.0146 19.0604 21.7031 19.0604H13.4079C12.0804 19.0604 11 17.9374 11 16.5581V2.50231C11 1.12302 12.0804 0 13.4079 0H32.5953C33.9212 0 35 1.12302 35 2.50231ZM25.1793 15.003L24.9168 15.1453C24.5867 15.3262 24.1955 15.2919 23.8976 15.0574C23.6006 14.8212 23.4645 14.4394 23.5402 14.0592L23.7575 13.0048L24.9699 7.19707C24.9828 7.13594 24.9691 7.09323 24.9241 7.048C24.8709 6.99524 24.8242 6.99859 24.7864 7.00948C23.2504 7.44077 21.9228 8.28325 20.7869 9.14917L21.0445 9.00932C21.3786 8.83261 21.7667 8.86695 22.0629 9.09641C22.3664 9.33676 22.5017 9.72032 22.4204 10.1014L22.2038 11.1498L20.9922 16.9601C20.9801 17.0187 20.993 17.0623 21.0349 17.1041C21.092 17.1619 21.1379 17.1586 21.1758 17.1477C22.719 16.7122 24.0458 15.8689 25.1793 15.003ZM25.7355 3.20493C25.7355 2.51906 25.1978 1.96131 24.5376 1.96131C23.8775 1.96131 23.3413 2.51906 23.3413 3.20493C23.3413 3.89248 23.8775 4.45106 24.5376 4.45106C25.1978 4.45106 25.7355 3.89248 25.7355 3.20493Z" fill="#F7D747"/>
</g>
<defs>
<clipPath id="clip0_55_1735">
<rect width="48" height="48" fill="white"/>
</clipPath>
</defs>
</svg>
