<svg width="72" height="72" viewBox="0 0 72 72" fill="none" xmlns="http://www.w3.org/2000/svg">
<path d="M30.3422 7.16573C29.3115 7.41492 28.4846 7.90197 27.6351 8.7628C26.2872 10.122 25.6983 11.7304 25.8115 13.6899C25.9474 15.8873 27.1141 17.9375 29.7646 20.6106C31.237 22.0944 34.8956 25.2998 35.3713 25.5264C36.0396 25.8435 36.6512 25.6849 37.5347 24.926C41.8955 21.2562 43.9116 19.1834 45.1349 17.1219C46.8566 14.1996 46.5847 10.9828 44.41 8.7628C42.3032 6.5994 39.1884 6.40684 36.6852 8.29841L35.881 8.91005L35.4506 8.46831C34.3066 7.30165 32.1092 6.73532 30.3422 7.16573Z" fill="#2E58A1"/>
<path d="M12.7515 9.46504C11.1884 9.72555 9.44408 10.7676 8.49264 12.0136C6.34056 14.7999 6.53311 18.4698 8.95703 20.8937C10.6334 22.5701 13.012 23.295 15.2774 22.8079C17.8598 22.2642 19.9666 20.1575 20.5103 17.575C20.9973 15.2983 20.3291 13.0783 18.6527 11.4246C17.6673 10.4391 16.7951 9.94076 15.5152 9.61228C14.711 9.39708 13.4991 9.34044 12.7515 9.46504Z" fill="#2E58A1"/>
<path d="M57.0961 9.45373C55.5103 9.79353 54.5136 10.3259 53.4035 11.4246C52.5201 12.2967 52.067 13.0216 51.6479 14.2563C51.478 14.7433 51.4327 15.1851 51.444 16.2384C51.444 17.4051 51.4893 17.6996 51.7385 18.3565C52.8599 21.3241 55.5896 23.1477 58.5799 22.9325C60.3468 22.8079 61.7287 22.1623 63.0086 20.8711C65.6364 18.2206 65.6024 14.0637 62.9407 11.4246C61.9552 10.4392 61.0831 9.94078 59.8031 9.6123C58.9989 9.40842 57.7077 9.32913 57.0961 9.45373Z" fill="#2E58A1"/>
<path d="M20.6798 25.2998C20.5891 25.3225 20.1247 25.4017 19.6603 25.4697C14.4727 26.3079 9.8967 30.4874 8.50352 35.6977C7.66534 38.8126 7.93718 42.0973 9.27373 45.1216C10.2139 47.2397 18.505 64.2298 18.7202 64.4563C19.1846 64.9887 19.3205 65 25.0972 65H30.534L30.4774 64.7395C30.4434 64.6036 29.9903 62.123 29.458 59.2234C28.9256 56.3237 28.4725 53.8998 28.4386 53.8205C28.4159 53.7412 26.2525 52.0762 23.6474 50.128C20.9176 48.0779 18.7316 46.3562 18.505 46.073C17.0325 44.2608 16.8966 41.9841 18.1312 40.0132C19.1506 38.4162 21.2348 37.476 23.115 37.7932C24.2363 37.9744 25.0179 38.4048 27.2379 40.0699C28.314 40.8854 29.2428 41.5197 29.2881 41.497C29.3334 41.4631 29.4127 41.2705 29.4466 41.0553C29.6392 40.0359 30.5227 38.5974 31.4628 37.7705C32.2104 37.1023 33.6602 36.3773 34.555 36.2188C34.9288 36.1508 35.3479 36.0715 35.4725 36.0489L35.7217 36.0036L35.4611 35.1767C34.1925 31.0538 30.9418 27.5765 27.0114 26.138C25.3464 25.5263 24.3836 25.3564 22.5487 25.2998C21.6199 25.2772 20.7704 25.2772 20.6798 25.2998Z" fill="#2E58A1"/>
<path d="M48.2608 25.3111C43.3563 26.0247 39.3919 28.8904 37.2738 33.2285C36.9454 33.9081 36.5716 34.8143 36.447 35.2333C36.1978 36.0602 36.2318 36.1168 36.8661 36.1168C37.8628 36.1168 39.5958 36.9437 40.6492 37.9291C41.5667 38.7899 42.133 39.6508 42.5068 40.7495C42.6427 41.1572 42.8126 41.4857 42.8806 41.4631C42.9485 41.4517 43.8094 40.8288 44.7835 40.0925C46.9242 38.4841 47.298 38.2463 48.0342 38.0084C51.0811 37.0116 54.196 38.9372 54.6944 42.1087C54.8982 43.4792 54.4905 44.9064 53.5617 46.0617C53.3352 46.3335 51.0925 48.1005 48.3854 50.128C45.7689 52.0989 43.6055 53.7072 43.6055 53.7186C43.5942 53.7299 43.1411 56.1538 42.5974 59.1101C42.0651 62.0664 41.5893 64.6036 41.5554 64.7395L41.4987 65H46.9469C52.7235 65 52.8708 64.9887 53.3352 64.4676C53.5164 64.2524 61.0713 48.5989 62.4305 45.6086C63.7558 42.675 64.1748 40.1605 63.7897 37.4874C62.8949 31.4502 58.5794 26.7836 52.7348 25.515C51.9193 25.3451 48.9857 25.2092 48.2608 25.3111Z" fill="#2E58A1"/>
<path d="M34.8955 39.5941C31.9959 40.6362 31.8147 44.6232 34.601 45.8918C35.3486 46.2429 36.6172 46.2316 37.3874 45.8805C39.5848 44.8837 40.1172 42.0973 38.4295 40.4436C37.5007 39.5375 36.0395 39.1864 34.8955 39.5941Z" fill="#2E58A1"/>
<path d="M21.5408 41.3611C20.7592 41.8028 20.4761 42.7316 20.8612 43.5358C20.9971 43.8303 22.2657 44.8384 26.1281 47.7381C29.5601 50.3092 31.2818 51.6684 31.4064 51.9063C31.5083 52.0988 32.0973 55.1118 32.7316 58.6004L33.8869 64.9434H35.971H38.0438L39.2558 58.6004C39.9127 55.1118 40.547 52.0988 40.6377 51.9063C40.7622 51.6798 42.5292 50.2866 45.9272 47.7381C50.4013 44.374 51.0356 43.8643 51.1942 43.4679C51.2961 43.2187 51.3754 42.8902 51.3754 42.7316C51.3754 42.2333 50.9223 41.5763 50.4126 41.3271C49.8463 41.0553 49.4385 41.044 48.9741 41.2818C48.1926 41.6896 41.759 46.628 40.9548 47.4436C39.1539 49.2558 36.696 49.9807 34.34 49.3691C33.0374 49.0406 32.1992 48.5423 31.1345 47.4775C30.2624 46.6054 23.8854 41.7009 23.0812 41.2818C22.5942 41.0326 22.0618 41.0553 21.5408 41.3611Z" fill="#2E58A1"/>
</svg>
