<svg xmlns="http://www.w3.org/2000/svg" width="32" height="32" fill="none"><path fill="currentColor" fill-rule="evenodd" d="M2 0a2 2 0 0 0-2 2v28a2 2 0 0 0 2 2h28a2 2 0 0 0 2-2V2a2 2 0 0 0-2-2H2Zm7.265 8.85C11 7.258 14.105 7.021 15.55 7l-.003.002c.482-.006.778.013.778.013 4.027.017 5.835 1.33 6.282 1.742 1.485 1.287 2.31 4.145 1.755 8.66-.49 3.989-3.27 4.696-4.202 4.933a3.979 3.979 0 0 0-.218.06c-.253.081-2.474.638-5.362.393a46.92 46.92 0 0 1-1.048 1.185c-.093.1-.18.199-.262.293-.418.473-.737.835-1.223.684-.485-.15-.457-.883-.457-.883l.003-1.812h-.002c-4.225-1.188-4.163-5.57-4.116-7.907.047-2.338.502-4.223 1.79-5.513Zm6.989-.567s-.251-.016-.66-.013l.004-.001c-1.227.009-3.863.193-5.333 1.522-1.09 1.077-1.456 2.677-1.497 4.63l-.004.197c-.047 1.996-.128 5.517 3.327 6.475l-.015 3.013c-.001.17.026.286.123.31.07.018.175-.018.264-.108.571-.573 2.398-2.777 2.398-2.777 2.453.16 4.405-.326 4.615-.393.05-.016.12-.033.208-.053.797-.186 3.008-.7 3.416-3.994v-.001c.468-3.772-.173-6.347-1.43-7.423-.378-.344-2.01-1.37-5.416-1.384Zm-.528 2.008a.227.227 0 0 1 .153-.07c1.316.01 2.444.454 3.336 1.324.898.876 1.352 2.085 1.362 3.573a.228.228 0 0 1-.455.003c-.01-1.4-.42-2.466-1.225-3.25-.811-.792-1.803-1.187-3.021-1.194a.228.228 0 0 1-.15-.386Zm-3.279.54a.735.735 0 0 1 .462-.088v.001a.616.616 0 0 1 .376.223c.213.254.42.512.622.776.192.27.37.548.533.836.214.383.08.775-.128.936l-.422.336c-.214.173-.186.492-.186.492s.626 2.37 2.966 2.966c0 0 .32.028.493-.184l.335-.423c.162-.21.554-.344.936-.13.287.163.565.34.835.532a21.644 21.644 0 0 1 .778.623c.247.208.303.515.135.84l-.002.007c-.186.321-.42.613-.698.861-.002 0-.002.002-.003.002 0 .001-.001.002-.003.002-.24.202-.479.318-.711.345a.957.957 0 0 1-.405-.041l-.008-.011c-.358-.102-.957-.355-1.953-.904a11.647 11.647 0 0 1-1.639-1.086 8.466 8.466 0 0 1-.738-.652l-.099-.1a8.35 8.35 0 0 1-.652-.737 11.634 11.634 0 0 1-1.085-1.64c-.549-.996-.803-1.593-.904-1.953l-.01-.007a.95.95 0 0 1-.043-.405c.03-.233.145-.469.345-.711 0-.002.002-.003.003-.003l.003-.003c.248-.278.537-.514.86-.7h.007Zm3.667.633a.227.227 0 0 1 .162-.062H16.296c.955.07 1.733.402 2.288 1.01.55.6.819 1.363.8 2.245a.23.23 0 0 1-.458-.01c.018-.784-.207-1.412-.68-1.928-.47-.512-1.113-.798-1.983-.862a.227.227 0 0 1-.15-.393Zm.355 1.224a.228.228 0 0 1 .155-.063h.016c.47.024.865.171 1.14.454.274.285.413.685.435 1.168a.228.228 0 0 1-.453.023c-.021-.408-.133-.69-.313-.873-.178-.186-.442-.296-.834-.317a.23.23 0 0 1-.216-.24.229.229 0 0 1 .07-.152Z" clip-rule="evenodd"/></svg>
