<svg viewBox="0 0 471 413" fill="none" xmlns="http://www.w3.org/2000/svg">
<g clip-path="url(#clip0_57_2254)">
<g clip-path="url(#clip1_57_2254)">
<path d="M155.987 568.341C156.034 549.459 156.112 530.577 156.127 511.695C156.174 453.862 155.886 396.02 156.524 338.186C156.641 327.295 152.984 319.555 145.88 312.33C138.301 304.629 133.251 295.333 130.287 284.715C140.62 290.728 149.747 297.975 154.602 310.344C157.077 306.889 156.633 304.113 155.131 301.947C151.832 297.17 147.841 292.862 144.588 288.054C140.029 281.314 135.803 274.34 131.633 267.342C130.8 265.943 130.855 264.019 130.287 261.33C141.219 268.093 149.996 275.317 154.291 286.975C154.836 286.818 155.38 286.67 155.917 286.513C155.917 284.676 156.532 282.526 155.801 281.056C153.972 277.381 152.035 273.535 149.249 270.611C141.912 262.909 135.687 254.559 131.718 244.622C131.088 243.035 130.816 241.299 130.933 239.305C140.962 245.419 149.996 252.307 154.283 264.254C157.24 261.228 156.509 258.672 155.264 256.701C152.571 252.448 149.731 248.203 146.386 244.473C139.624 236.952 134.037 228.805 130.901 219.094C130.637 218.273 130.575 217.39 130.201 215.365C141.048 222.143 149.794 229.469 154.345 241.612C156.913 238.25 156.726 235.709 155.139 233.551C150.93 227.804 146.105 222.487 142.215 216.545C138.13 210.306 134.792 203.566 131.259 196.983C130.754 196.045 130.987 194.708 130.8 192.746C141.017 199.806 150.167 206.498 154.097 218.312C156.47 215.662 157.139 214.184 155.365 211.322C152.182 206.186 148.665 201.158 144.627 196.686C138.597 190.009 134.138 182.535 131.174 174.098C130.886 173.27 131.236 172.214 131.291 171.268C132.115 171.401 133.158 171.268 133.726 171.722C139.554 176.413 146.129 180.338 150.019 187.093C151.529 189.72 152.89 192.441 154.501 195.466C157.061 192.839 156.695 190.291 155.474 188.266C153.069 184.294 150.611 180.205 147.42 176.913C140.814 170.08 135.889 162.245 132.022 153.653C131.213 151.862 130.87 149.861 130.793 147.719C141.063 153.739 149.973 160.846 154.657 173.223C157.256 168.751 156.112 165.795 154.275 162.934C151.552 158.696 149.187 154.185 150.105 149.071C151.786 139.728 153.972 130.479 155.948 121.19C156.555 121.206 157.162 121.222 157.777 121.237C158.788 125.162 159.924 129.056 160.773 133.02C161.877 138.211 162.967 143.426 163.659 148.688C164.336 153.895 162.78 158.586 159.979 163.113C158.493 165.514 158.244 168.688 157.435 171.51C158.026 171.854 158.617 172.191 159.209 172.535C165.091 161.745 172.156 152.175 184.03 146.655C183.127 152.941 181.19 158.289 177.611 162.918C173.199 168.625 168.507 174.122 164.048 179.79C162.204 182.128 160.251 184.528 159.092 187.218C158.104 189.524 158.182 192.292 157.792 194.849C158.182 194.958 158.578 195.068 158.967 195.177C162.407 190.338 165.418 185.115 169.394 180.768C173.339 176.452 178.249 173.027 183.275 169.634C183.275 176.022 180.964 181.417 177.471 186.108C172.856 192.3 167.558 197.976 162.819 204.075C159.761 208.015 156.532 212.128 158.858 218.985C164.788 207.382 172.491 198.531 183.874 192.363C183.423 198.938 180.972 204.036 177.595 208.578C171.977 216.139 165.978 223.41 160.197 230.838C157.808 233.902 157.318 237.304 159.115 241.291C164.336 229.704 172.895 221.534 184.528 214.817C183.384 218.562 182.793 221.455 181.649 224.106C177.704 233.3 171.448 240.814 164.5 247.89C162.103 250.329 160.298 253.527 158.851 256.662C157.933 258.664 158.166 261.205 158.687 263.894C164.523 253.003 172.141 244.278 183.625 238.39C183.314 244.981 180.847 250.173 177.416 254.778C172.094 261.924 166.297 268.703 160.858 275.755C158.469 278.851 156.594 282.26 159.224 287.444C164.819 275.739 172.545 266.928 183.905 260.876C183.073 267.303 181.237 272.768 177.649 277.42C172.825 283.675 167.55 289.578 162.687 295.81C159.691 299.649 156.423 303.613 158.773 309.758C162.453 304.645 165.449 299.469 169.433 295.231C173.526 290.876 178.583 287.428 183.703 283.996C182.396 291.15 179.439 297.452 175.455 303.104C171.658 308.499 167.192 313.417 162.897 318.444C159.372 322.58 157.878 327.092 157.886 332.69C158.041 409.812 157.987 486.926 158.003 564.048C158.003 565.463 158.205 566.886 158.314 568.302H155.98L155.987 568.341Z" fill="#F7D747"/>
</g>
<g clip-path="url(#clip2_57_2254)">
<path d="M224.94 568.341C224.987 549.459 225.065 530.577 225.08 511.695C225.127 453.862 224.839 396.02 225.477 338.186C225.594 327.295 221.937 319.555 214.833 312.33C207.254 304.629 202.204 295.333 199.24 284.715C209.573 290.728 218.7 297.975 223.555 310.344C226.03 306.889 225.586 304.113 224.085 301.947C220.785 297.17 216.794 292.862 213.541 288.054C208.982 281.314 204.757 274.34 200.586 267.342C199.753 265.943 199.808 264.019 199.24 261.33C210.172 268.093 218.949 275.317 223.244 286.975C223.789 286.818 224.333 286.67 224.87 286.513C224.87 284.676 225.485 282.526 224.754 281.056C222.925 277.381 220.988 273.535 218.202 270.611C210.865 262.909 204.64 254.559 200.672 244.622C200.041 243.035 199.769 241.299 199.886 239.305C209.915 245.419 218.949 252.307 223.236 264.254C226.193 261.228 225.462 258.672 224.217 256.701C221.525 252.448 218.685 248.203 215.339 244.473C208.577 236.952 202.99 228.805 199.855 219.094C199.59 218.273 199.528 217.39 199.154 215.365C210.001 222.143 218.747 229.469 223.299 241.612C225.866 238.25 225.68 235.709 224.092 233.551C219.883 227.804 215.059 222.487 211.168 216.545C207.083 210.306 203.745 203.566 200.213 196.983C199.707 196.045 199.94 194.708 199.753 192.746C209.97 199.806 219.12 206.498 223.05 218.312C225.423 215.662 226.092 214.184 224.318 211.322C221.136 206.186 217.619 201.158 213.58 196.686C207.55 190.009 203.091 182.535 200.127 174.098C199.839 173.27 200.189 172.214 200.244 171.268C201.068 171.401 202.111 171.268 202.679 171.722C208.507 176.413 215.082 180.338 218.972 187.093C220.482 189.72 221.844 192.441 223.454 195.466C226.014 192.839 225.648 190.291 224.427 188.266C222.023 184.294 219.564 180.205 216.374 176.913C209.768 170.08 204.842 162.245 200.975 153.653C200.166 151.862 199.823 149.861 199.746 147.719C210.017 153.739 218.926 160.846 223.61 173.223C226.209 168.751 225.065 165.795 223.229 162.934C220.505 158.696 218.14 154.185 219.058 149.071C220.739 139.728 222.925 130.479 224.902 121.19C225.508 121.206 226.115 121.222 226.73 121.237C227.742 125.162 228.878 129.056 229.726 133.02C230.831 138.211 231.92 143.426 232.612 148.688C233.289 153.895 231.733 158.586 228.932 163.113C227.446 165.514 227.197 168.688 226.388 171.51C226.979 171.854 227.57 172.191 228.162 172.535C234.044 161.745 241.109 152.175 252.983 146.655C252.08 152.941 250.143 158.289 246.564 162.918C242.152 168.625 237.46 174.122 233.001 179.79C231.157 182.128 229.204 184.528 228.045 187.218C227.057 189.524 227.135 192.292 226.746 194.849C227.135 194.958 227.531 195.068 227.921 195.177C231.36 190.338 234.371 185.115 238.347 180.768C242.292 176.452 247.202 173.027 252.228 169.634C252.228 176.022 249.917 181.417 246.424 186.108C241.81 192.3 236.511 197.976 231.772 204.075C228.714 208.015 225.485 212.128 227.812 218.985C233.741 207.382 241.444 198.531 252.827 192.363C252.376 198.938 249.925 204.036 246.548 208.578C240.93 216.139 234.931 223.41 229.15 230.838C226.761 233.902 226.271 237.304 228.068 241.291C233.289 229.704 241.848 221.534 253.481 214.817C252.337 218.562 251.746 221.455 250.602 224.106C246.657 233.3 240.401 240.814 233.453 247.89C231.056 250.329 229.251 253.527 227.804 256.662C226.886 258.664 227.119 261.205 227.64 263.894C233.476 253.003 241.094 244.278 252.578 238.39C252.267 244.981 249.801 250.173 246.369 254.778C241.047 261.924 235.25 268.703 229.811 275.755C227.423 278.851 225.547 282.26 228.177 287.444C233.772 275.739 241.498 266.928 252.858 260.876C252.026 267.303 250.19 272.768 246.603 277.42C241.778 283.675 236.503 289.578 231.64 295.81C228.644 299.649 225.376 303.613 227.726 309.758C231.406 304.645 234.402 299.469 238.386 295.231C242.479 290.876 247.536 287.428 252.656 283.996C251.349 291.15 248.392 297.452 244.408 303.104C240.611 308.499 236.145 313.417 231.85 318.444C228.325 322.58 226.831 327.092 226.839 332.69C226.995 409.812 226.94 486.926 226.956 564.048C226.956 565.463 227.158 566.886 227.267 568.302H224.933L224.94 568.341Z" fill="#F7D747"/>
</g>
<g clip-path="url(#clip3_57_2254)">
<path d="M293.895 618.488C293.942 599.607 294.02 580.725 294.036 561.843C294.082 504.009 293.794 446.168 294.432 388.334C294.549 377.443 290.892 369.702 283.788 362.478C276.209 354.777 271.16 345.48 268.195 334.863C278.528 340.875 287.655 348.123 292.51 360.492C294.985 357.036 294.541 354.261 293.04 352.095C289.74 347.318 285.749 343.01 282.496 338.201C277.937 331.462 273.712 324.488 269.541 317.49C268.709 316.091 268.763 314.167 268.195 311.478C279.127 318.241 287.904 325.465 292.199 337.122C292.744 336.966 293.289 336.818 293.825 336.661C293.825 334.824 294.44 332.674 293.709 331.204C291.88 327.529 289.943 323.682 287.157 320.758C279.82 313.057 273.595 304.707 269.627 294.769C268.996 293.182 268.724 291.447 268.841 289.453C278.87 295.567 287.904 302.455 292.191 314.402C295.148 311.376 294.417 308.819 293.172 306.849C290.48 302.596 287.64 298.35 284.294 294.621C277.532 287.099 271.945 278.952 268.81 269.242C268.545 268.421 268.483 267.537 268.109 265.512C278.956 272.291 287.702 279.617 292.254 291.759C294.821 288.397 294.635 285.856 293.047 283.698C288.838 277.952 284.014 272.635 280.123 266.693C276.038 260.454 272.7 253.714 269.168 247.131C268.662 246.193 268.895 244.856 268.709 242.893C278.925 249.953 288.075 256.646 292.005 268.46C294.378 265.809 295.047 264.332 293.273 261.47C290.091 256.333 286.574 251.306 282.535 246.834C276.505 240.157 272.047 232.682 269.082 224.246C268.794 223.417 269.144 222.362 269.199 221.416C270.023 221.549 271.066 221.416 271.634 221.869C277.462 226.56 284.037 230.485 287.927 237.241C289.437 239.868 290.799 242.588 292.409 245.614C294.969 242.987 294.604 240.438 293.382 238.413C290.978 234.441 288.519 230.352 285.329 227.061C278.723 220.227 273.797 212.393 269.93 203.801C269.121 202.01 268.779 200.009 268.701 197.866C278.972 203.887 287.881 210.994 292.565 223.37C295.164 218.898 294.02 215.943 292.184 213.081C289.46 208.844 287.095 204.332 288.013 199.219C289.694 189.876 291.88 180.626 293.857 171.338C294.463 171.354 295.07 171.369 295.685 171.385C296.697 175.31 297.833 179.203 298.681 183.167C299.786 188.359 300.875 193.574 301.568 198.836C302.244 204.043 300.688 208.734 297.887 213.261C296.401 215.661 296.152 218.836 295.343 221.658C295.934 222.002 296.525 222.338 297.117 222.682C302.999 211.893 310.064 202.323 321.938 196.803C321.035 203.089 319.098 208.437 315.519 213.066C311.107 218.773 306.415 224.27 301.957 229.938C300.112 232.276 298.159 234.676 297 237.366C296.012 239.672 296.09 242.44 295.701 244.997C296.09 245.106 296.487 245.215 296.876 245.325C300.315 240.485 303.326 235.262 307.302 230.915C311.247 226.599 316.157 223.175 321.183 219.782C321.183 226.169 318.872 231.564 315.379 236.255C310.765 242.448 305.466 248.124 300.727 254.222C297.669 258.163 294.44 262.276 296.767 269.132C302.696 257.53 310.399 248.679 321.782 242.51C321.331 249.086 318.88 254.183 315.503 258.726C309.885 266.286 303.886 273.558 298.105 280.985C295.716 284.05 295.226 287.451 297.023 291.439C302.244 279.852 310.804 271.681 322.436 264.965C321.292 268.71 320.701 271.603 319.557 274.254C315.612 283.448 309.356 290.962 302.408 298.038C300.011 300.477 298.206 303.675 296.759 306.81C295.841 308.811 296.074 311.353 296.595 314.042C302.431 303.151 310.049 294.425 321.533 288.538C321.222 295.129 318.756 300.321 315.324 304.926C310.002 312.072 304.205 318.85 298.766 325.903C296.378 328.999 294.502 332.408 297.132 337.592C302.727 325.887 310.453 317.076 321.814 311.024C320.981 317.451 319.145 322.916 315.558 327.568C310.733 333.823 305.458 339.726 300.595 345.957C297.599 349.796 294.331 353.76 296.681 359.906C300.361 354.792 303.357 349.616 307.341 345.379C311.434 341.024 316.491 337.576 321.611 334.144C320.304 341.298 317.347 347.599 313.363 353.252C309.566 358.647 305.1 363.565 300.805 368.592C297.28 372.728 295.786 377.239 295.794 382.837C295.95 459.96 295.895 537.074 295.911 614.196C295.911 615.611 296.113 617.034 296.222 618.449H293.888L293.895 618.488Z" fill="#F7D747"/>
</g>
<g clip-path="url(#clip4_57_2254)">
<path d="M90.4013 447.15C90.448 428.268 90.5258 409.387 90.5414 390.505C90.5881 332.671 90.3002 274.829 90.9382 216.996C91.0549 206.104 87.3979 198.364 80.2939 191.14C72.7152 183.438 67.6654 174.142 64.7008 163.525C75.0339 169.537 84.161 176.785 89.0163 189.154C91.4907 185.698 91.0472 182.922 89.5454 180.757C86.2463 175.98 82.2547 171.672 79.0022 166.863C74.4426 160.124 70.2175 153.149 66.0469 146.152C65.2144 144.752 65.2688 142.829 64.7008 140.139C75.6331 146.902 84.41 154.127 88.7051 165.784C89.2498 165.628 89.7944 165.479 90.3313 165.323C90.3313 163.486 90.946 161.335 90.2146 159.866C88.3861 156.191 86.4486 152.344 83.663 149.42C76.3256 141.719 70.1008 133.368 66.1325 123.431C65.5023 121.844 65.2299 120.108 65.3466 118.115C75.3763 124.229 84.41 131.117 88.6973 143.063C91.6541 140.038 90.9227 137.481 89.6777 135.511C86.9855 131.257 84.1455 127.012 80.7996 123.283C74.038 115.761 68.4512 107.614 65.3155 97.9036C65.051 97.0826 64.9887 96.1991 64.6152 94.1741C75.4619 100.953 84.2077 108.279 88.7596 120.421C91.3273 117.059 91.1405 114.518 89.5532 112.36C85.3437 106.613 80.5195 101.297 76.629 95.3547C72.544 89.1155 69.206 82.3759 65.6734 75.7927C65.1677 74.8545 65.4011 73.5175 65.2144 71.5551C75.4308 78.6152 84.5812 85.3079 88.5106 97.1217C90.8838 94.4712 91.5529 92.9935 89.7789 90.1319C86.5965 84.9952 83.0795 79.9678 79.0411 75.4956C73.0109 68.8186 68.5524 61.3441 65.5879 52.9078C65.3 52.0791 65.6501 51.0236 65.7046 50.0775C66.5294 50.2104 67.572 50.0775 68.14 50.531C73.968 55.2221 80.5429 59.147 84.4333 65.9023C85.9429 68.5293 87.3045 71.2502 88.9152 74.2759C91.4751 71.6489 91.1094 69.1001 89.8878 67.0751C87.4835 63.1032 85.0247 59.0141 81.8345 55.7225C75.2285 48.8891 70.3031 41.0549 66.436 32.4624C65.6268 30.6719 65.2844 28.6704 65.2066 26.5281C75.4775 32.5484 84.3867 39.6554 89.0708 52.0322C91.6696 47.56 90.5258 44.6046 88.6895 41.743C85.9662 37.5053 83.6008 32.994 84.5189 27.8807C86.1996 18.5375 88.3861 9.28819 90.3624 -0.000244141C90.9694 0.0153929 91.5763 0.03103 92.191 0.0466671C93.2025 3.97158 94.3385 7.86521 95.1866 11.8292C96.2915 17.0207 97.3809 22.2357 98.0734 27.4976C98.7503 32.7047 97.1941 37.3959 94.393 41.9228C92.9068 44.3231 92.6578 47.4974 91.8486 50.3199C92.44 50.6639 93.0313 51.0001 93.6227 51.3441C99.5051 40.5545 106.57 30.9846 118.444 25.4648C117.541 31.7509 115.604 37.0987 112.025 41.7273C107.613 47.4349 102.921 52.9313 98.4624 58.5997C96.6183 60.9375 94.6653 63.3378 93.5059 66.0274C92.5178 68.3338 92.5956 71.1016 92.2065 73.6583C92.5956 73.7677 92.9924 73.8772 93.3815 73.9866C96.8206 69.147 99.8319 63.9242 103.808 59.5771C107.753 55.2612 112.663 51.8367 117.689 48.4435C117.689 54.8312 115.378 60.226 111.885 64.9171C107.27 71.1094 101.972 76.7857 97.233 82.8841C94.1751 86.8247 90.946 90.9372 93.2725 97.7941C99.2016 86.1914 106.905 77.3408 118.288 71.172C117.837 77.7474 115.386 82.8451 112.009 87.3876C106.391 94.9482 100.392 102.219 94.6108 109.647C92.2221 112.712 91.7319 116.113 93.5293 120.1C98.7503 108.513 107.309 100.343 118.942 93.6268C117.798 97.3719 117.207 100.265 116.063 102.915C112.118 112.11 105.862 119.623 98.9137 126.699C96.5172 129.139 94.712 132.336 93.2647 135.472C92.3466 137.473 92.58 140.014 93.1013 142.704C98.9371 131.813 106.555 123.087 118.039 117.2C117.728 123.791 115.262 128.982 111.83 133.587C106.508 140.734 100.711 147.512 95.2722 154.565C92.8835 157.661 91.0083 161.07 93.6382 166.253C99.2327 154.549 106.959 145.737 118.319 139.686C117.487 146.113 115.651 151.578 112.064 156.23C107.239 162.485 101.964 168.388 97.1008 174.619C94.1051 178.458 90.8371 182.422 93.1869 188.567C96.8673 183.454 99.863 178.278 103.847 174.041C107.94 169.686 112.997 166.238 118.117 162.805C116.81 169.959 113.853 176.261 109.869 181.914C106.072 187.309 101.606 192.226 97.3108 197.254C93.7861 201.39 92.2921 205.901 92.2999 211.499C92.4555 288.621 92.4011 365.736 92.4166 442.858C92.4166 444.273 92.6189 445.696 92.7279 447.111H90.3936L90.4013 447.15Z" fill="#F7D747"/>
</g>
<g clip-path="url(#clip5_57_2254)">
<path d="M24.3506 516.103C24.3972 497.221 24.4751 478.34 24.4906 459.458C24.5373 401.624 24.2494 343.783 24.8875 285.949C25.0042 275.058 21.3471 267.317 14.2431 260.093C6.66444 252.392 1.61459 243.095 -1.34996 232.478C8.98316 238.49 18.1102 245.738 22.9656 258.107C25.4399 254.651 24.9964 251.876 23.4947 249.71C20.1955 244.933 16.2039 240.625 12.9515 235.816C8.39181 229.077 4.16675 222.103 -0.00384974 215.105C-0.836413 213.705 -0.781946 211.782 -1.34996 209.092C9.5823 215.856 18.3592 223.08 22.6543 234.737C23.199 234.581 23.7436 234.432 24.2805 234.276C24.2805 232.439 24.8952 230.289 24.1638 228.819C22.3353 225.144 20.3978 221.297 17.6122 218.373C10.2748 210.672 4.05003 202.322 0.0817409 192.384C-0.548517 190.797 -0.820851 189.061 -0.704136 187.068C9.32552 193.182 18.3592 200.07 22.6465 212.017C25.6033 208.991 24.8719 206.434 23.6269 204.464C20.9347 200.211 18.0947 195.965 14.7489 192.236C7.9872 184.714 2.40047 176.567 -0.73526 166.857C-0.999813 166.036 -1.06206 165.152 -1.43555 163.127C9.41111 169.906 18.1569 177.232 22.7088 189.374C25.2765 186.012 25.0898 183.471 23.5024 181.313C19.2929 175.567 14.4687 170.25 10.5783 164.308C6.49325 158.069 3.15522 151.329 -0.377336 144.746C-0.883098 143.808 -0.64967 142.471 -0.836413 140.508C9.37999 147.568 18.5304 154.261 22.4598 166.075C24.833 163.424 25.5021 161.947 23.7281 159.085C20.5457 153.948 17.0287 148.921 12.9904 144.449C6.96011 137.772 2.50162 130.297 -0.462927 121.861C-0.750822 121.032 -0.400679 119.977 -0.346212 119.031C0.47857 119.164 1.52122 119.031 2.08923 119.484C7.91717 124.175 14.4921 128.1 18.3826 134.855C19.8921 137.482 21.2537 140.203 22.8644 143.229C25.4243 140.602 25.0586 138.053 23.837 136.028C21.4327 132.056 18.9739 127.967 15.7837 124.676C9.17769 117.842 4.25234 110.008 0.385198 101.415C-0.424022 99.625 -0.766384 97.6235 -0.844194 95.4812C9.42668 101.501 18.3359 108.609 23.02 120.985C25.6189 116.513 24.4751 113.558 22.6388 110.696C19.9154 106.458 17.55 101.947 18.4682 96.8338C20.1488 87.4907 22.3353 78.2413 24.3117 68.9529C24.9186 68.9685 25.5255 68.9842 26.1402 68.9998C27.1517 72.9247 28.2877 76.8183 29.1359 80.7823C30.2408 85.9739 31.3301 91.1888 32.0226 96.4507C32.6995 101.658 31.1433 106.349 28.3422 110.876C26.856 113.276 26.607 116.451 25.7978 119.273C26.3892 119.617 26.9805 119.953 27.5719 120.297C33.4543 109.508 40.5194 99.9378 52.3932 94.4179C51.4906 100.704 49.5531 106.052 45.9739 110.68C41.5621 116.388 36.8701 121.884 32.4116 127.553C30.5676 129.891 28.6145 132.291 27.4552 134.98C26.467 137.287 26.5448 140.055 26.1557 142.611C26.5448 142.721 26.9416 142.83 27.3307 142.94C30.7699 138.1 33.7811 132.877 37.7572 128.53C41.7021 124.214 46.6119 120.79 51.6384 117.397C51.6384 123.784 49.3275 129.179 45.8338 133.87C41.2197 140.063 35.9209 145.739 31.1822 151.837C28.1243 155.778 24.8952 159.89 27.2217 166.747C33.1508 155.145 40.854 146.294 52.2375 140.125C51.7862 146.7 49.3352 151.798 45.9583 156.341C40.3404 163.901 34.3413 171.173 28.5601 178.6C26.1713 181.665 25.6811 185.066 27.4785 189.054C32.6995 177.466 41.2586 169.296 52.8911 162.58C51.7473 166.325 51.156 169.218 50.0122 171.868C46.0672 181.063 39.8113 188.577 32.8629 195.652C30.4664 198.092 28.6612 201.29 27.214 204.425C26.2958 206.426 26.5292 208.967 27.0506 211.657C32.8863 200.766 40.5038 192.04 51.9885 186.153C51.6773 192.744 49.2107 197.935 45.7793 202.541C40.4572 209.687 34.6603 216.465 29.2214 223.518C26.8327 226.614 24.9575 230.023 27.5874 235.206C33.182 223.502 40.9084 214.691 52.2687 208.639C51.4361 215.066 49.5998 220.531 46.0128 225.183C41.1886 231.438 35.9131 237.341 31.05 243.572C28.0543 247.411 24.7863 251.375 27.1361 257.521C30.8165 252.407 33.8122 247.231 37.7961 242.994C41.8889 238.639 46.9465 235.191 52.0664 231.758C50.7592 238.912 47.8024 245.214 43.8185 250.867C40.0214 256.262 35.5551 261.18 31.2601 266.207C27.7353 270.343 26.2413 274.854 26.2491 280.452C26.4047 357.574 26.3503 434.689 26.3658 511.811C26.3658 513.226 26.5681 514.649 26.6771 516.064H24.3428L24.3506 516.103Z" fill="#F7D747"/>
</g>
<g clip-path="url(#clip6_57_2254)">
<path d="M377.39 654.142C377.343 635.26 377.265 616.379 377.25 597.497C377.203 539.663 377.491 481.821 376.853 423.988C376.736 413.096 380.393 405.356 387.497 398.132C395.076 390.43 400.126 381.134 403.09 370.517C392.757 376.529 383.63 383.777 378.775 396.146C376.3 392.69 376.744 389.914 378.246 387.749C381.545 382.971 385.536 378.663 388.789 373.855C393.348 367.115 397.573 360.141 401.744 353.144C402.577 351.744 402.522 349.821 403.09 347.131C392.158 353.894 383.381 361.119 379.086 372.776C378.541 372.62 377.997 372.471 377.46 372.315C377.46 370.477 376.845 368.327 377.576 366.857C379.405 363.183 381.342 359.336 384.128 356.412C391.465 348.711 397.69 340.36 401.658 330.423C402.289 328.836 402.561 327.1 402.444 325.106C392.415 331.221 383.381 338.109 379.094 350.055C376.137 347.03 376.868 344.473 378.113 342.503C380.806 338.249 383.646 334.004 386.991 330.275C393.753 322.753 399.34 314.606 402.475 304.896C402.74 304.075 402.802 303.191 403.176 301.166C392.329 307.945 383.583 315.271 379.031 327.413C376.464 324.051 376.65 321.51 378.238 319.352C382.447 313.605 387.271 308.289 391.162 302.347C395.247 296.107 398.585 289.368 402.118 282.785C402.623 281.846 402.39 280.509 402.577 278.547C392.36 285.607 383.21 292.3 379.28 304.114C376.907 301.463 376.238 299.985 378.012 297.124C381.195 291.987 384.712 286.96 388.75 282.488C394.78 275.811 399.239 268.336 402.203 259.9C402.491 259.071 402.141 258.016 402.086 257.069C401.262 257.202 400.219 257.069 399.651 257.523C393.823 262.214 387.248 266.139 383.358 272.894C381.848 275.521 380.486 278.242 378.876 281.268C376.316 278.641 376.682 276.092 377.903 274.067C380.308 270.095 382.766 266.006 385.957 262.714C392.563 255.881 397.488 248.047 401.355 239.454C402.164 237.664 402.507 235.662 402.584 233.52C392.314 239.54 383.404 246.647 378.72 259.024C376.121 254.552 377.265 251.596 379.101 248.735C381.825 244.497 384.19 239.986 383.272 234.873C381.591 225.529 379.405 216.28 377.429 206.992C376.822 207.007 376.215 207.023 375.6 207.039C374.589 210.964 373.453 214.857 372.604 218.821C371.499 224.013 370.41 229.228 369.718 234.49C369.041 239.697 370.597 244.388 373.398 248.915C374.884 251.315 375.133 254.489 375.942 257.312C375.351 257.656 374.76 257.992 374.168 258.336C368.286 247.546 361.221 237.977 349.347 232.457C350.25 238.743 352.187 244.091 355.766 248.719C360.178 254.427 364.87 259.923 369.329 265.592C371.173 267.929 373.126 270.33 374.285 273.019C375.273 275.326 375.195 278.094 375.584 280.65C375.195 280.76 374.799 280.869 374.41 280.979C370.97 276.139 367.959 270.916 363.983 266.569C360.038 262.253 355.128 258.829 350.102 255.435C350.102 261.823 352.413 267.218 355.906 271.909C360.521 278.101 365.819 283.778 370.558 289.876C373.616 293.817 376.845 297.929 374.518 304.786C368.589 293.183 360.886 284.333 349.503 278.164C349.954 284.739 352.405 289.837 355.782 294.38C361.4 301.94 367.399 309.211 373.18 316.639C375.569 319.704 376.059 323.105 374.262 327.092C369.041 315.505 360.482 307.335 348.849 300.619C349.993 304.364 350.584 307.257 351.728 309.907C355.673 319.102 361.929 326.615 368.877 333.691C371.274 336.131 373.079 339.328 374.526 342.464C375.444 344.465 375.211 347.006 374.69 349.696C368.854 338.805 361.236 330.079 349.752 324.192C350.063 330.783 352.529 335.974 355.961 340.579C361.283 347.725 367.08 354.504 372.519 361.557C374.908 364.653 376.783 368.062 374.153 373.245C368.558 361.541 360.832 352.729 349.472 346.678C350.304 353.105 352.14 358.57 355.727 363.222C360.552 369.477 365.827 375.38 370.69 381.611C373.686 385.45 376.954 389.414 374.604 395.559C370.924 390.446 367.928 385.27 363.944 381.033C359.851 376.678 354.794 373.23 349.674 369.797C350.981 376.951 353.938 383.253 357.922 388.906C361.719 394.301 366.185 399.218 370.48 404.246C374.005 408.382 375.499 412.893 375.491 418.491C375.335 495.613 375.39 572.728 375.374 649.85C375.374 651.265 375.172 652.688 375.063 654.103H377.397L377.39 654.142Z" fill="#F7D747"/>
</g>
</g>
<defs>
<clipPath id="clip0_57_2254">
<rect width="472.705" height="412.516" fill="white" transform="translate(-2)"/>
</clipPath>
<clipPath id="clip1_57_2254">
<rect width="54.3267" height="447.15" fill="white" transform="translate(130.201 121.19)"/>
</clipPath>
<clipPath id="clip2_57_2254">
<rect width="54.3267" height="447.15" fill="white" transform="translate(199.154 121.19)"/>
</clipPath>
<clipPath id="clip3_57_2254">
<rect width="54.3267" height="447.15" fill="white" transform="translate(268.109 171.338)"/>
</clipPath>
<clipPath id="clip4_57_2254">
<rect width="54.3267" height="447.15" fill="white" transform="translate(64.6152 -0.000244141)"/>
</clipPath>
<clipPath id="clip5_57_2254">
<rect width="54.3267" height="447.15" fill="white" transform="translate(-1.43555 68.953)"/>
</clipPath>
<clipPath id="clip6_57_2254">
<rect width="54.317" height="205.524" fill="white" transform="matrix(-1 0 0 1 403.176 206.992)"/>
</clipPath>
</defs>
</svg>
