<svg viewBox="0 0 322 281" fill="none" xmlns="http://www.w3.org/2000/svg">
<g clip-path="url(#clip0_49_128)">
<g clip-path="url(#clip1_49_128)">
<path d="M107.235 387.146C107.267 374.284 107.32 361.422 107.33 348.56C107.362 309.164 107.166 269.763 107.601 230.368C107.68 222.949 105.189 217.676 100.35 212.755C95.1873 207.509 91.7474 201.177 89.728 193.944C96.7668 198.04 102.984 202.977 106.291 211.402C107.977 209.048 107.675 207.158 106.652 205.682C104.404 202.428 101.685 199.494 99.4699 196.218C96.3639 191.627 93.4859 186.877 90.6449 182.11C90.0778 181.157 90.1149 179.847 89.728 178.014C97.1749 182.621 103.154 187.542 106.079 195.483C106.45 195.377 106.821 195.276 107.187 195.169C107.187 193.918 107.606 192.453 107.108 191.452C105.862 188.948 104.542 186.328 102.645 184.336C97.6466 179.09 93.4064 173.402 90.7032 166.633C90.2739 165.552 90.0884 164.37 90.1679 163.011C97 167.176 103.154 171.868 106.074 180.006C108.088 177.945 107.59 176.204 106.742 174.862C104.908 171.964 102.973 169.072 100.694 166.532C96.0883 161.408 92.2827 155.859 90.1467 149.244C89.9665 148.685 89.9241 148.083 89.6697 146.704C97.0583 151.321 103.016 156.311 106.116 164.583C107.866 162.292 107.738 160.562 106.657 159.092C103.79 155.177 100.503 151.555 97.8533 147.508C95.0707 143.258 92.7968 138.667 90.3905 134.182C90.046 133.543 90.205 132.633 90.0778 131.296C97.0371 136.105 103.27 140.664 105.947 148.711C107.563 146.906 108.019 145.899 106.811 143.95C104.643 140.451 102.247 137.026 99.4964 133.98C95.3887 129.432 92.3516 124.34 90.3322 118.594C90.1361 118.029 90.3746 117.31 90.4117 116.666C90.9735 116.756 91.6838 116.666 92.0707 116.974C96.0406 120.17 100.519 122.844 103.17 127.445C104.198 129.235 105.125 131.088 106.222 133.149C107.966 131.36 107.717 129.623 106.885 128.244C105.247 125.538 103.572 122.753 101.399 120.511C96.8993 115.856 93.5442 110.519 90.9099 104.666C90.3587 103.447 90.1255 102.083 90.0725 100.624C97.0689 104.725 103.138 109.566 106.328 117.997C108.099 114.951 107.32 112.937 106.069 110.988C104.214 108.102 102.602 105.028 103.228 101.545C104.373 95.1809 105.862 88.8804 107.208 82.5532C107.622 82.5639 108.035 82.5745 108.454 82.5852C109.143 85.2588 109.917 87.9111 110.495 90.6113C111.247 94.1477 111.989 97.7001 112.461 101.284C112.922 104.831 111.862 108.027 109.954 111.111C108.942 112.746 108.772 114.908 108.221 116.831C108.624 117.065 109.026 117.294 109.429 117.528C113.436 110.179 118.249 103.66 126.337 99.8997C125.722 104.182 124.402 107.825 121.964 110.978C118.959 114.865 115.763 118.609 112.726 122.471C111.47 124.063 110.139 125.698 109.35 127.53C108.677 129.101 108.73 130.987 108.464 132.728C108.73 132.803 109 132.878 109.265 132.952C111.608 129.655 113.659 126.098 116.367 123.137C119.054 120.197 122.399 117.864 125.823 115.552C125.823 119.904 124.249 123.579 121.869 126.774C118.726 130.992 115.116 134.859 111.888 139.013C109.805 141.697 107.606 144.499 109.191 149.169C113.229 141.266 118.477 135.237 126.231 131.035C125.924 135.514 124.254 138.986 121.954 142.081C118.127 147.231 114.04 152.184 110.102 157.243C108.475 159.331 108.141 161.648 109.366 164.364C112.922 156.471 118.752 150.906 126.676 146.331C125.897 148.882 125.494 150.852 124.715 152.658C122.028 158.921 117.766 164.039 113.033 168.859C111.401 170.521 110.171 172.699 109.185 174.835C108.56 176.198 108.719 177.929 109.074 179.761C113.049 172.342 118.238 166.399 126.061 162.388C125.849 166.878 124.169 170.414 121.832 173.551C118.206 178.419 114.258 183.037 110.553 187.841C108.926 189.95 107.648 192.272 109.44 195.803C113.251 187.83 118.514 181.828 126.252 177.706C125.685 182.083 124.434 185.806 121.991 188.975C118.705 193.236 115.111 197.257 111.798 201.502C109.758 204.117 107.532 206.817 109.132 211.003C111.639 207.52 113.68 203.994 116.394 201.107C119.182 198.141 122.627 195.792 126.114 193.454C125.224 198.327 123.21 202.62 120.496 206.471C117.91 210.146 114.867 213.495 111.941 216.92C109.54 219.737 108.523 222.81 108.528 226.624C108.634 279.158 108.597 331.688 108.608 384.222C108.608 385.186 108.745 386.155 108.82 387.119H107.23L107.235 387.146Z" fill="#2E58A1"/>
</g>
<g clip-path="url(#clip2_49_128)">
<path d="M154.205 387.146C154.237 374.284 154.29 361.422 154.3 348.56C154.332 309.164 154.136 269.763 154.571 230.368C154.65 222.949 152.159 217.676 147.32 212.755C142.157 207.509 138.718 201.177 136.698 193.944C143.737 198.04 149.954 202.977 153.262 211.402C154.947 209.048 154.645 207.158 153.622 205.682C151.375 202.428 148.656 199.494 146.44 196.218C143.334 191.627 140.456 186.877 137.615 182.11C137.048 181.157 137.085 179.847 136.698 178.014C144.145 182.621 150.124 187.542 153.05 195.483C153.421 195.377 153.792 195.276 154.157 195.169C154.157 193.918 154.576 192.453 154.078 191.452C152.832 188.948 151.512 186.328 149.615 184.336C144.617 179.09 140.377 173.402 137.673 166.633C137.244 165.552 137.059 164.37 137.138 163.011C143.97 167.176 150.124 171.868 153.044 180.006C155.058 177.945 154.56 176.204 153.712 174.862C151.878 171.964 149.944 169.072 147.664 166.532C143.059 161.408 139.253 155.859 137.117 149.244C136.937 148.685 136.894 148.083 136.64 146.704C144.028 151.321 149.986 156.311 153.087 164.583C154.836 162.292 154.709 160.562 153.627 159.092C150.76 155.177 147.474 151.555 144.824 147.508C142.041 143.258 139.767 138.667 137.361 134.182C137.016 133.543 137.175 132.633 137.048 131.296C144.007 136.105 150.24 140.664 152.917 148.711C154.534 146.906 154.989 145.899 153.781 143.95C151.613 140.451 149.217 137.026 146.467 133.98C142.359 129.432 139.322 124.34 137.302 118.594C137.106 118.029 137.345 117.31 137.382 116.666C137.944 116.756 138.654 116.666 139.041 116.974C143.011 120.17 147.49 122.844 150.14 127.445C151.168 129.235 152.096 131.088 153.193 133.149C154.936 131.36 154.687 129.623 153.855 128.244C152.217 125.538 150.543 122.753 148.369 120.511C143.869 115.856 140.514 110.519 137.88 104.666C137.329 103.447 137.096 102.083 137.043 100.624C144.039 104.725 150.108 109.566 153.299 117.997C155.069 114.951 154.29 112.937 153.039 110.988C151.184 108.102 149.573 105.028 150.198 101.545C151.343 95.1809 152.832 88.8804 154.179 82.5532C154.592 82.5639 155.005 82.5745 155.424 82.5852C156.113 85.2588 156.887 87.9111 157.465 90.6113C158.217 94.1477 158.959 97.7001 159.431 101.284C159.892 104.831 158.832 108.027 156.924 111.111C155.912 112.746 155.742 114.908 155.191 116.831C155.594 117.065 155.997 117.294 156.399 117.528C160.406 110.179 165.219 103.66 173.307 99.8997C172.692 104.182 171.373 107.825 168.935 110.978C165.929 114.865 162.733 118.609 159.696 122.471C158.44 124.063 157.11 125.698 156.32 127.53C155.647 129.101 155.7 130.987 155.435 132.728C155.7 132.803 155.97 132.878 156.235 132.952C158.578 129.655 160.629 126.098 163.337 123.137C166.025 120.197 169.369 117.864 172.793 115.552C172.793 119.904 171.219 123.579 168.839 126.774C165.696 130.992 162.087 134.859 158.859 139.013C156.776 141.697 154.576 144.499 156.161 149.169C160.2 141.266 165.447 135.237 173.201 131.035C172.894 135.514 171.224 138.986 168.924 142.081C165.097 147.231 161.011 152.184 157.072 157.243C155.445 159.331 155.111 161.648 156.336 164.364C159.892 156.471 165.723 150.906 173.646 146.331C172.867 148.882 172.465 150.852 171.685 152.658C168.998 158.921 164.737 164.039 160.004 168.859C158.371 170.521 157.141 172.699 156.156 174.835C155.53 176.198 155.689 177.929 156.044 179.761C160.019 172.342 165.208 166.399 173.032 162.388C172.82 166.878 171.139 170.414 168.802 173.551C165.177 178.419 161.228 183.037 157.523 187.841C155.896 189.95 154.618 192.272 156.41 195.803C160.221 187.83 165.484 181.828 173.222 177.706C172.655 182.083 171.404 185.806 168.961 188.975C165.675 193.236 162.081 197.257 158.769 201.502C156.728 204.117 154.502 206.817 156.103 211.003C158.61 207.52 160.65 203.994 163.364 201.107C166.152 198.141 169.597 195.792 173.085 193.454C172.194 198.327 170.18 202.62 167.466 206.471C164.88 210.146 161.837 213.495 158.912 216.92C156.511 219.737 155.493 222.81 155.498 226.624C155.604 279.158 155.567 331.688 155.578 384.222C155.578 385.186 155.716 386.155 155.79 387.119H154.2L154.205 387.146Z" fill="#2E58A1"/>
</g>
<g clip-path="url(#clip3_49_128)">
<path d="M201.175 421.306C201.207 408.444 201.26 395.582 201.27 382.72C201.302 343.324 201.106 303.923 201.541 264.528C201.62 257.109 199.129 251.836 194.29 246.915C189.127 241.669 185.688 235.337 183.668 228.104C190.707 232.2 196.924 237.137 200.232 245.562C201.917 243.208 201.615 241.318 200.592 239.842C198.345 236.588 195.626 233.654 193.41 230.378C190.304 225.787 187.426 221.037 184.585 216.27C184.018 215.317 184.055 214.006 183.668 212.174C191.115 216.781 197.094 221.702 200.02 229.643C200.391 229.537 200.762 229.436 201.127 229.329C201.127 228.077 201.546 226.613 201.048 225.612C199.802 223.108 198.482 220.488 196.585 218.496C191.587 213.25 187.347 207.562 184.643 200.793C184.214 199.712 184.029 198.529 184.108 197.171C190.94 201.336 197.094 206.028 200.014 214.166C202.028 212.105 201.53 210.364 200.682 209.021C198.848 206.124 196.914 203.232 194.634 200.692C190.029 195.568 186.223 190.019 184.087 183.404C183.907 182.845 183.864 182.243 183.61 180.863C190.998 185.481 196.956 190.471 200.057 198.742C201.806 196.452 201.679 194.721 200.597 193.252C197.73 189.337 194.444 185.715 191.794 181.668C189.011 177.418 186.737 172.827 184.331 168.342C183.986 167.703 184.145 166.792 184.018 165.456C190.977 170.265 197.21 174.824 199.887 182.871C201.504 181.066 201.959 180.059 200.751 178.11C198.583 174.611 196.187 171.186 193.437 168.14C189.329 163.592 186.292 158.5 184.272 152.753C184.076 152.189 184.315 151.47 184.352 150.825C184.914 150.916 185.624 150.825 186.011 151.134C189.981 154.33 194.46 157.004 197.11 161.605C198.138 163.395 199.065 165.248 200.163 167.309C201.906 165.52 201.657 163.783 200.825 162.404C199.187 159.698 197.513 156.913 195.339 154.671C190.839 150.016 187.484 144.679 184.85 138.826C184.299 137.607 184.066 136.243 184.013 134.784C191.009 138.885 197.078 143.726 200.269 152.157C202.039 149.111 201.26 147.097 200.009 145.148C198.154 142.261 196.543 139.188 197.168 135.705C198.313 129.341 199.802 123.04 201.149 116.713C201.562 116.724 201.975 116.734 202.394 116.745C203.083 119.419 203.857 122.071 204.435 124.771C205.187 128.308 205.929 131.86 206.401 135.444C206.862 138.991 205.802 142.187 203.894 145.271C202.882 146.906 202.712 149.068 202.161 150.991C202.564 151.225 202.967 151.454 203.369 151.688C207.376 144.339 212.189 137.82 220.277 134.06C219.662 138.342 218.343 141.985 215.905 145.137C212.899 149.025 209.703 152.769 206.666 156.631C205.41 158.223 204.08 159.858 203.29 161.69C202.617 163.261 202.67 165.147 202.405 166.888C202.67 166.963 202.94 167.037 203.205 167.112C205.548 163.815 207.599 160.258 210.307 157.296C212.995 154.357 216.339 152.024 219.763 149.712C219.763 154.064 218.189 157.738 215.809 160.934C212.666 165.152 209.057 169.019 205.829 173.173C203.746 175.857 201.546 178.659 203.131 183.329C207.17 175.426 212.417 169.397 220.171 165.195C219.864 169.674 218.194 173.146 215.894 176.241C212.067 181.391 207.981 186.344 204.042 191.403C202.415 193.491 202.081 195.808 203.306 198.524C206.862 190.631 212.693 185.066 220.616 180.491C219.837 183.042 219.435 185.012 218.655 186.818C215.968 193.081 211.707 198.199 206.974 203.019C205.341 204.681 204.111 206.859 203.126 208.995C202.5 210.358 202.659 212.089 203.014 213.921C206.989 206.502 212.178 200.559 220.002 196.548C219.79 201.038 218.109 204.574 215.772 207.711C212.147 212.579 208.198 217.197 204.493 222.001C202.866 224.11 201.588 226.432 203.38 229.963C207.191 221.99 212.454 215.988 220.192 211.865C219.625 216.243 218.374 219.966 215.931 223.135C212.645 227.396 209.051 231.417 205.739 235.662C203.698 238.277 201.472 240.977 203.073 245.163C205.58 241.68 207.62 238.154 210.334 235.267C213.122 232.301 216.567 229.952 220.055 227.614C219.164 232.487 217.15 236.78 214.436 240.631C211.85 244.305 208.807 247.655 205.882 251.08C203.481 253.897 202.463 256.97 202.468 260.784C202.574 313.318 202.537 365.847 202.548 418.382C202.548 419.346 202.686 420.315 202.76 421.279H201.17L201.175 421.306Z" fill="#2E58A1"/>
</g>
<g clip-path="url(#clip4_49_128)">
<path d="M62.5586 304.593C62.5904 291.731 62.6434 278.869 62.654 266.007C62.6858 226.611 62.4897 187.21 62.9243 147.815C63.0038 140.396 60.5126 135.123 55.6735 130.202C50.511 124.956 47.0711 118.623 45.0517 111.391C52.0905 115.487 58.3077 120.424 61.6151 128.849C63.3006 126.495 62.9985 124.604 61.9755 123.129C59.7282 119.875 57.0092 116.94 54.7936 113.665C51.6877 109.074 48.8096 104.323 45.9687 99.5568C45.4015 98.6035 45.4386 97.2933 45.0517 95.4612C52.4986 100.068 58.4773 104.989 61.4031 112.93C61.7741 112.824 62.1451 112.722 62.5109 112.616C62.5109 111.364 62.9296 109.9 62.4314 108.898C61.1858 106.395 59.866 103.775 57.9685 101.783C52.9703 96.537 48.7301 90.849 46.027 84.0798C45.5976 82.9986 45.4121 81.8163 45.4916 80.4582C52.3237 84.623 58.4773 89.3151 61.3978 97.4531C63.4119 95.392 62.9137 93.6504 62.0656 92.3083C60.2317 89.411 58.2971 86.519 56.018 83.9786C51.4121 78.8551 47.6064 73.3055 45.4704 66.6908C45.2902 66.1315 45.2478 65.5297 44.9934 64.1503C52.382 68.7678 58.3395 73.7582 61.4402 82.0293C63.1893 79.7392 63.0621 78.0083 61.9808 76.5383C59.1134 72.6238 55.8272 69.0022 53.1771 64.9545C50.3944 60.7045 48.1206 56.1135 45.7142 51.6291C45.3697 50.99 45.5287 50.0793 45.4015 48.7425C52.3608 53.5518 58.5939 58.1107 61.2706 66.1582C62.8872 64.3527 63.343 63.3461 62.1345 61.3968C59.9667 57.8977 57.571 54.4732 54.8201 51.4268C50.7124 46.8785 47.6754 41.7869 45.6559 36.0403C45.4598 35.4757 45.6983 34.7567 45.7354 34.1123C46.2973 34.2028 47.0075 34.1123 47.3944 34.4212C51.3644 37.6167 55.8431 40.2903 58.4932 44.8919C59.5215 46.6814 60.449 48.5348 61.5462 50.5959C63.29 48.8064 63.0409 47.0702 62.2087 45.6908C60.5709 42.9852 58.8961 40.1998 56.7229 37.9576C52.223 33.3028 48.8679 27.9662 46.2337 22.1131C45.6824 20.8935 45.4492 19.53 45.3962 18.0707C52.3926 22.1717 58.4614 27.0129 61.6522 35.4438C63.4225 32.3974 62.6434 30.3842 61.3925 28.4349C59.5374 25.5483 57.9261 22.4752 58.5515 18.9921C59.6964 12.6277 61.1858 6.32715 62.5321 0C62.9455 0.0106518 63.3589 0.0213035 63.7776 0.0319553C64.4667 2.70555 65.2405 5.35784 65.8182 8.05807C66.5709 11.5945 67.3129 15.1468 67.7846 18.7311C68.2458 22.2782 67.1857 25.4737 65.2776 28.5574C64.2652 30.1925 64.0956 32.3548 63.5444 34.2774C63.9472 34.5117 64.3501 34.7408 64.7529 34.9751C68.7599 27.6254 73.5726 21.1065 81.6608 17.3464C81.046 21.6284 79.7262 25.2713 77.2881 28.4243C74.2828 32.3122 71.0867 36.0563 68.0497 39.9175C66.7935 41.51 65.4631 43.145 64.6734 44.9771C64.0002 46.5482 64.0532 48.4336 63.7882 50.1752C64.0532 50.2497 64.3236 50.3243 64.5886 50.3989C66.9313 47.1021 68.9825 43.5444 71.691 40.5833C74.3782 37.6434 77.7227 35.3106 81.1467 32.9992C81.1467 37.3504 79.5725 41.0253 77.1926 44.2208C74.0496 48.4389 70.4401 52.3055 67.2122 56.4597C65.1292 59.144 62.9296 61.9454 64.5144 66.6162C68.5532 58.7126 73.8005 52.6837 81.5548 48.4815C81.2474 52.9606 79.5778 56.4331 77.2775 59.5274C73.4506 64.6776 69.3641 69.6306 65.426 74.6902C63.7988 76.778 63.4649 79.0947 64.6893 81.8109C68.2458 73.918 74.0761 68.3524 82 63.7775C81.2209 66.3286 80.818 68.2992 80.0389 70.1046C77.3517 76.3679 73.0902 81.4861 68.3571 86.306C66.7246 87.9677 65.4949 90.146 64.5091 92.2816C63.8836 93.6451 64.0426 95.376 64.3978 97.2081C68.373 89.7891 73.562 83.8454 81.3852 79.835C81.1732 84.3248 79.493 87.8612 77.1555 90.9981C73.5301 95.866 69.5814 100.484 65.8765 105.287C64.2493 107.397 62.972 109.719 64.7635 113.25C68.5744 105.277 73.8376 99.2745 81.576 95.1523C81.0089 99.5302 79.758 103.253 77.3146 106.422C74.0284 110.683 70.4348 114.704 67.1221 118.948C65.0815 121.563 62.8554 124.264 64.4561 128.45C66.9631 124.967 69.0037 121.441 71.7175 118.554C74.5054 115.588 77.9506 113.239 81.4382 110.901C80.5477 115.774 78.5336 120.067 75.8199 123.917C73.2333 127.592 70.191 130.942 67.2652 134.367C64.8642 137.184 63.8465 140.257 63.8518 144.071C63.9578 196.605 63.9207 249.134 63.9313 301.669C63.9313 302.633 64.0691 303.602 64.1433 304.566H62.5533L62.5586 304.593Z" fill="#2E58A1"/>
</g>
<g clip-path="url(#clip5_49_128)">
<path d="M17.5651 351.563C17.597 338.701 17.65 325.839 17.6606 312.977C17.6924 273.581 17.4962 234.18 17.9309 194.785C18.0104 187.366 15.5192 182.093 10.6801 177.172C5.5176 171.926 2.07771 165.593 0.0583032 158.361C7.09708 162.456 13.3143 167.394 16.6217 175.819C18.3072 173.465 18.0051 171.574 16.9821 170.099C14.7348 166.845 12.0157 163.91 9.80023 160.635C6.69426 156.044 3.81621 151.293 0.975253 146.527C0.408122 145.573 0.445224 144.263 0.0583032 142.431C7.50521 147.038 13.4839 151.959 16.4097 159.9C16.7807 159.794 17.1517 159.692 17.5174 159.586C17.5174 158.334 17.9362 156.87 17.4379 155.868C16.1924 153.365 14.8726 150.745 12.9751 148.753C7.97693 143.507 3.7367 137.819 1.03356 131.05C0.604233 129.969 0.418723 128.786 0.498227 127.428C7.3303 131.593 13.4839 136.285 16.4044 144.423C18.4185 142.362 17.9203 140.62 17.0722 139.278C15.2383 136.381 13.3037 133.489 11.0246 130.949C6.41865 125.825 2.61304 120.275 0.477026 113.661C0.296816 113.102 0.254414 112.5 0 111.12C7.3886 115.738 13.3461 120.728 16.4468 128.999C18.1959 126.709 18.0687 124.978 16.9874 123.508C14.12 119.594 10.8338 115.972 8.18364 111.924C5.40099 107.674 3.12717 103.084 0.720839 98.5991C0.37632 97.96 0.535329 97.0493 0.408122 95.7125C7.3674 100.522 13.6005 105.081 16.2772 113.128C17.8938 111.323 18.3496 110.316 17.1411 108.367C14.9733 104.868 12.5776 101.443 9.82673 98.3967C5.71901 93.8484 2.68194 88.7569 0.662536 83.0102C0.466425 82.4457 0.704938 81.7267 0.74204 81.0823C1.30387 81.1728 2.01411 81.0823 2.40103 81.3912C6.37094 84.5867 10.8497 87.2603 13.4998 91.8619C14.5281 93.6514 15.4556 95.5048 16.5528 97.5659C18.2966 95.7764 18.0475 94.0402 17.2153 92.6608C15.5775 89.9552 13.9027 87.1698 11.7295 84.9276C7.22959 80.2727 3.87451 74.9362 1.24027 69.0831C0.689037 67.8634 0.455825 66.5 0.402822 65.0407C7.3992 69.1416 13.468 73.9829 16.6588 82.4137C18.4291 79.3673 17.65 77.3542 16.3991 75.4049C14.544 72.5182 12.9327 69.4452 13.5581 65.9621C14.703 59.5976 16.1924 53.2971 17.5386 46.97C17.9521 46.9806 18.3655 46.9913 18.7842 47.0019C19.4733 49.6755 20.2471 52.3278 20.8248 55.028C21.5775 58.5644 22.3195 62.1168 22.7912 65.7011C23.2524 69.2482 22.1923 72.4437 20.2842 75.5274C19.2718 77.1624 19.1022 79.3247 18.551 81.2474C18.9538 81.4817 19.3566 81.7107 19.7595 81.9451C23.7665 74.5953 28.5791 68.0765 36.6674 64.3164C36.0525 68.5984 34.7328 72.2413 32.2946 75.3942C29.2894 79.2821 26.0933 83.0262 23.0562 86.8875C21.8001 88.4799 20.4697 90.115 19.68 91.9471C19.0068 93.5182 19.0598 95.4036 18.7948 97.1451C19.0598 97.2197 19.3301 97.2943 19.5952 97.3688C21.9379 94.0721 23.9891 90.5144 26.6975 87.5532C29.3848 84.6133 32.7293 82.2806 36.1533 79.9692C36.1533 84.3204 34.5791 87.9953 32.1992 91.1908C29.0562 95.4089 25.4467 99.2755 22.2188 103.43C20.1358 106.114 17.9362 108.915 19.521 113.586C23.5598 105.683 28.8071 99.6536 36.5614 95.4515C36.254 99.9306 34.5844 103.403 32.284 106.497C28.4572 111.648 24.3707 116.601 20.4326 121.66C18.8054 123.748 18.4715 126.065 19.6959 128.781C23.2524 120.888 29.0827 115.322 37.0066 110.747C36.2275 113.299 35.8246 115.269 35.0455 117.075C32.3582 123.338 28.0968 128.456 23.3637 133.276C21.7312 134.938 20.5015 137.116 19.5157 139.252C18.8902 140.615 19.0492 142.346 19.4043 144.178C23.3796 136.759 28.5685 130.815 36.3918 126.805C36.1798 131.295 34.4996 134.831 32.1621 137.968C28.5367 142.836 24.588 147.453 20.8831 152.257C19.2559 154.366 17.9786 156.689 19.7701 160.22C23.581 152.247 28.8442 146.244 36.5826 142.122C36.0154 146.5 34.7646 150.223 32.3211 153.392C29.035 157.653 25.4414 161.674 22.1287 165.918C20.0881 168.533 17.862 171.234 19.4627 175.42C21.9697 171.937 24.0103 168.411 26.724 165.524C29.512 162.558 32.9572 160.209 36.4448 157.871C35.5543 162.744 33.5402 167.037 30.8265 170.887C28.2399 174.562 25.1976 177.912 22.2718 181.337C19.8708 184.154 18.8531 187.227 18.8584 191.041C18.9644 243.575 18.9273 296.104 18.9379 348.639C18.9379 349.603 19.0757 350.572 19.1499 351.536H17.5598L17.5651 351.563Z" fill="#2E58A1"/>
</g>
<g clip-path="url(#clip6_49_128)">
<path d="M258.435 445.593C258.403 432.731 258.35 419.869 258.339 407.007C258.308 367.611 258.504 328.21 258.069 288.815C257.99 281.396 260.481 276.123 265.32 271.202C270.482 265.956 273.922 259.623 275.942 252.391C268.903 256.487 262.686 261.424 259.378 269.849C257.693 267.495 257.995 265.604 259.018 264.129C261.265 260.875 263.984 257.94 266.2 254.665C269.306 250.074 272.184 245.323 275.025 240.557C275.592 239.603 275.555 238.293 275.942 236.461C268.495 241.068 262.516 245.989 259.59 253.93C259.219 253.824 258.848 253.722 258.483 253.616C258.483 252.364 258.064 250.9 258.562 249.898C259.808 247.395 261.127 244.775 263.025 242.783C268.023 237.537 272.263 231.849 274.966 225.08C275.396 223.999 275.581 222.816 275.502 221.458C268.67 225.623 262.516 230.315 259.596 238.453C257.582 236.392 258.08 234.65 258.928 233.308C260.762 230.411 262.696 227.519 264.975 224.979C269.581 219.855 273.387 214.306 275.523 207.691C275.703 207.132 275.746 206.53 276 205.15C268.611 209.768 262.654 214.758 259.553 223.029C257.804 220.739 257.931 219.008 259.013 217.538C261.88 213.624 265.166 210.002 267.816 205.955C270.599 201.704 272.873 197.114 275.279 192.629C275.624 191.99 275.465 191.079 275.592 189.743C268.633 194.552 262.399 199.111 259.723 207.158C258.106 205.353 257.65 204.346 258.859 202.397C261.027 198.898 263.422 195.473 266.173 192.427C270.281 187.878 273.318 182.787 275.337 177.04C275.534 176.476 275.295 175.757 275.258 175.112C274.696 175.203 273.986 175.112 273.599 175.421C269.629 178.617 265.15 181.29 262.5 185.892C261.472 187.681 260.544 189.535 259.447 191.596C257.703 189.806 257.953 188.07 258.785 186.691C260.422 183.985 262.097 181.2 264.27 178.958C268.77 174.303 272.125 168.966 274.76 163.113C275.311 161.893 275.544 160.53 275.597 159.071C268.601 163.172 262.532 168.013 259.341 176.444C257.571 173.397 258.35 171.384 259.601 169.435C261.456 166.548 263.067 163.475 262.442 159.992C261.297 153.628 259.808 147.327 258.461 141C258.048 141.011 257.635 141.021 257.216 141.032C256.527 143.706 255.753 146.358 255.175 149.058C254.423 152.594 253.68 156.147 253.209 159.731C252.748 163.278 253.808 166.474 255.716 169.557C256.728 171.192 256.898 173.355 257.449 175.277C257.046 175.512 256.643 175.741 256.241 175.975C252.234 168.625 247.421 162.106 239.333 158.346C239.947 162.628 241.267 166.271 243.705 169.424C246.711 173.312 249.907 177.056 252.944 180.918C254.2 182.51 255.53 184.145 256.32 185.977C256.993 187.548 256.94 189.434 257.205 191.175C256.94 191.25 256.67 191.324 256.405 191.399C254.062 188.102 252.011 184.544 249.302 181.583C246.615 178.643 243.271 176.311 239.847 173.999C239.847 178.35 241.421 182.025 243.801 185.221C246.944 189.439 250.553 193.306 253.781 197.46C255.864 200.144 258.064 202.945 256.479 207.616C252.44 199.713 247.193 193.684 239.439 189.482C239.746 193.961 241.416 197.433 243.716 200.527C247.543 205.678 251.629 210.631 255.567 215.69C257.195 217.778 257.529 220.095 256.304 222.811C252.748 214.918 246.917 209.352 238.993 204.777C239.773 207.329 240.175 209.299 240.955 211.105C243.642 217.368 247.903 222.486 252.636 227.306C254.269 228.968 255.498 231.146 256.484 233.282C257.11 234.645 256.951 236.376 256.596 238.208C252.62 230.789 247.431 224.845 239.608 220.835C239.82 225.325 241.5 228.861 243.838 231.998C247.463 236.866 251.412 241.484 255.117 246.287C256.744 248.397 258.021 250.719 256.23 254.25C252.419 246.277 247.156 240.275 239.417 236.152C239.985 240.53 241.235 244.253 243.679 247.422C246.965 251.683 250.559 255.704 253.871 259.948C255.912 262.563 258.138 265.264 256.537 269.45C254.03 265.967 251.99 262.441 249.276 259.554C246.488 256.588 243.043 254.239 239.555 251.901C240.446 256.774 242.46 261.067 245.174 264.917C247.76 268.592 250.802 271.942 253.728 275.367C256.129 278.184 257.147 281.257 257.142 285.071C257.036 337.605 257.073 390.134 257.062 442.669C257.062 443.633 256.924 444.602 256.85 445.566H258.44L258.435 445.593Z" fill="#2E58A1"/>
</g>
</g>
<defs>
<clipPath id="clip0_49_128">
<rect width="322" height="281" fill="white"/>
</clipPath>
<clipPath id="clip1_49_128">
<rect width="37.0066" height="304.593" fill="white" transform="translate(89.6697 82.5532)"/>
</clipPath>
<clipPath id="clip2_49_128">
<rect width="37.0066" height="304.593" fill="white" transform="translate(136.64 82.5532)"/>
</clipPath>
<clipPath id="clip3_49_128">
<rect width="37.0066" height="304.593" fill="white" transform="translate(183.61 116.713)"/>
</clipPath>
<clipPath id="clip4_49_128">
<rect width="37.0066" height="304.593" fill="white" transform="translate(44.9934)"/>
</clipPath>
<clipPath id="clip5_49_128">
<rect width="37.0066" height="304.593" fill="white" transform="translate(0 46.97)"/>
</clipPath>
<clipPath id="clip6_49_128">
<rect width="37" height="140" fill="white" transform="matrix(-1 0 0 1 276 141)"/>
</clipPath>
</defs>
</svg>
