<svg viewBox="0 0 322 281" fill="none" xmlns="http://www.w3.org/2000/svg">
<g clip-path="url(#clip0_49_98)">
<g clip-path="url(#clip1_49_98)">
<path d="M214.765 387.146C214.733 374.284 214.68 361.422 214.67 348.56C214.638 309.164 214.834 269.763 214.399 230.368C214.32 222.949 216.811 217.676 221.65 212.755C226.813 207.509 230.253 201.177 232.272 193.944C225.233 198.04 219.016 202.977 215.709 211.402C214.023 209.048 214.325 207.158 215.348 205.682C217.596 202.428 220.315 199.494 222.53 196.218C225.636 191.627 228.514 186.877 231.355 182.11C231.922 181.157 231.885 179.847 232.272 178.014C224.825 182.621 218.846 187.542 215.921 195.483C215.55 195.377 215.179 195.276 214.813 195.169C214.813 193.918 214.394 192.453 214.892 191.452C216.138 188.948 217.458 186.328 219.355 184.336C224.353 179.09 228.594 173.402 231.297 166.633C231.726 165.552 231.912 164.37 231.832 163.011C225 167.176 218.846 171.868 215.926 180.006C213.912 177.945 214.41 176.204 215.258 174.862C217.092 171.964 219.027 169.072 221.306 166.532C225.912 161.408 229.717 155.859 231.853 149.244C232.034 148.685 232.076 148.083 232.33 146.704C224.942 151.321 218.984 156.311 215.884 164.583C214.134 162.292 214.262 160.562 215.343 159.092C218.21 155.177 221.497 151.555 224.147 147.508C226.929 143.258 229.203 138.667 231.609 134.182C231.954 133.543 231.795 132.633 231.922 131.296C224.963 136.105 218.73 140.664 216.053 148.711C214.437 146.906 213.981 145.899 215.189 143.95C217.357 140.451 219.753 137.026 222.504 133.98C226.611 129.432 229.648 124.34 231.668 118.594C231.864 118.029 231.625 117.31 231.588 116.666C231.026 116.756 230.316 116.666 229.929 116.974C225.959 120.17 221.481 122.844 218.83 127.445C217.802 129.235 216.875 131.088 215.778 133.149C214.034 131.36 214.283 129.623 215.115 128.244C216.753 125.538 218.428 122.753 220.601 120.511C225.101 115.856 228.456 110.519 231.09 104.666C231.641 103.447 231.874 102.083 231.928 100.624C224.931 104.725 218.862 109.566 215.672 117.997C213.901 114.951 214.68 112.937 215.931 110.988C217.786 108.102 219.398 105.028 218.772 101.545C217.627 95.1809 216.138 88.8804 214.792 82.5532C214.378 82.5639 213.965 82.5745 213.546 82.5852C212.857 85.2588 212.083 87.9111 211.505 90.6113C210.753 94.1477 210.011 97.7001 209.539 101.284C209.078 104.831 210.138 108.027 212.046 111.111C213.058 112.746 213.228 114.908 213.779 116.831C213.376 117.065 212.974 117.294 212.571 117.528C208.564 110.179 203.751 103.66 195.663 99.8997C196.278 104.182 197.598 107.825 200.036 110.978C203.041 114.865 206.237 118.609 209.274 122.471C210.53 124.063 211.861 125.698 212.65 127.53C213.323 129.101 213.27 130.987 213.536 132.728C213.27 132.803 213 132.878 212.735 132.952C210.392 129.655 208.341 126.098 205.633 123.137C202.946 120.197 199.601 117.864 196.177 115.552C196.177 119.904 197.751 123.579 200.131 126.774C203.274 130.992 206.884 134.859 210.112 139.013C212.195 141.697 214.394 144.499 212.809 149.169C208.771 141.266 203.523 135.237 195.769 131.035C196.076 135.514 197.746 138.986 200.046 142.081C203.873 147.231 207.96 152.184 211.898 157.243C213.525 159.331 213.859 161.648 212.634 164.364C209.078 156.471 203.248 150.906 195.324 146.331C196.103 148.882 196.506 150.852 197.285 152.658C199.972 158.921 204.234 164.039 208.967 168.859C210.599 170.521 211.829 172.699 212.815 174.835C213.44 176.198 213.281 177.929 212.926 179.761C208.951 172.342 203.762 166.399 195.939 162.388C196.151 166.878 197.831 170.414 200.168 173.551C203.794 178.419 207.742 183.037 211.447 187.841C213.074 189.95 214.352 192.272 212.56 195.803C208.749 187.83 203.486 181.828 195.748 177.706C196.315 182.083 197.566 185.806 200.009 188.975C203.295 193.236 206.889 197.257 210.202 201.502C212.242 204.117 214.468 206.817 212.868 211.003C210.361 207.52 208.32 203.994 205.606 201.107C202.818 198.141 199.373 195.792 195.886 193.454C196.776 198.327 198.79 202.62 201.504 206.471C204.09 210.146 207.133 213.495 210.059 216.92C212.46 219.737 213.477 222.81 213.472 226.624C213.366 279.158 213.403 331.688 213.392 384.222C213.392 385.186 213.255 386.155 213.18 387.119H214.77L214.765 387.146Z" fill="#2E58A1"/>
</g>
<g clip-path="url(#clip2_49_98)">
<path d="M167.795 387.146C167.763 374.284 167.71 361.422 167.7 348.56C167.668 309.164 167.864 269.763 167.429 230.368C167.35 222.949 169.841 217.676 174.68 212.755C179.843 207.509 183.282 201.177 185.302 193.944C178.263 198.04 172.046 202.977 168.738 211.402C167.053 209.048 167.355 207.158 168.378 205.682C170.625 202.428 173.344 199.494 175.56 196.218C178.666 191.627 181.544 186.877 184.385 182.11C184.952 181.157 184.915 179.847 185.302 178.014C177.855 182.621 171.876 187.542 168.95 195.483C168.579 195.377 168.208 195.276 167.843 195.169C167.843 193.918 167.424 192.453 167.922 191.452C169.168 188.948 170.488 186.328 172.385 184.336C177.383 179.09 181.623 173.402 184.327 166.633C184.756 165.552 184.941 164.37 184.862 163.011C178.03 167.176 171.876 171.868 168.956 180.006C166.942 177.945 167.44 176.204 168.288 174.862C170.122 171.964 172.056 169.072 174.336 166.532C178.941 161.408 182.747 155.859 184.883 149.244C185.063 148.685 185.106 148.083 185.36 146.704C177.972 151.321 172.014 156.311 168.913 164.583C167.164 162.292 167.291 160.562 168.373 159.092C171.24 155.177 174.526 151.555 177.176 147.508C179.959 143.258 182.233 138.667 184.639 134.182C184.984 133.543 184.825 132.633 184.952 131.296C177.993 136.105 171.76 140.664 169.083 148.711C167.466 146.906 167.011 145.899 168.219 143.95C170.387 140.451 172.783 137.026 175.533 133.98C179.641 129.432 182.678 124.34 184.698 118.594C184.894 118.029 184.655 117.31 184.618 116.666C184.056 116.756 183.346 116.666 182.959 116.974C178.989 120.17 174.51 122.844 171.86 127.445C170.832 129.235 169.904 131.088 168.807 133.149C167.064 131.36 167.313 129.623 168.145 128.244C169.783 125.538 171.457 122.753 173.631 120.511C178.131 115.856 181.486 110.519 184.12 104.666C184.671 103.447 184.904 102.083 184.957 100.624C177.961 104.725 171.892 109.566 168.701 117.997C166.931 114.951 167.71 112.937 168.961 110.988C170.816 108.102 172.427 105.028 171.802 101.545C170.657 95.1809 169.168 88.8804 167.821 82.5532C167.408 82.5639 166.995 82.5745 166.576 82.5852C165.887 85.2588 165.113 87.9111 164.535 90.6113C163.783 94.1477 163.041 97.7001 162.569 101.284C162.108 104.831 163.168 108.027 165.076 111.111C166.088 112.746 166.258 114.908 166.809 116.831C166.406 117.065 166.003 117.294 165.601 117.528C161.594 110.179 156.781 103.66 148.693 99.8997C149.308 104.182 150.627 107.825 153.065 110.978C156.071 114.865 159.267 118.609 162.304 122.471C163.56 124.063 164.89 125.698 165.68 127.53C166.353 129.101 166.3 130.987 166.565 132.728C166.3 132.803 166.03 132.878 165.765 132.952C163.422 129.655 161.371 126.098 158.663 123.137C155.975 120.197 152.631 117.864 149.207 115.552C149.207 119.904 150.781 123.579 153.161 126.774C156.304 130.992 159.913 134.859 163.141 139.013C165.224 141.697 167.424 144.499 165.839 149.169C161.8 141.266 156.553 135.237 148.799 131.035C149.106 135.514 150.776 138.986 153.076 142.081C156.903 147.231 160.989 152.184 164.928 157.243C166.555 159.331 166.889 161.648 165.664 164.364C162.108 156.471 156.277 150.906 148.354 146.331C149.133 148.882 149.535 150.852 150.315 152.658C153.002 158.921 157.263 164.039 161.996 168.859C163.629 170.521 164.859 172.699 165.844 174.835C166.47 176.198 166.311 177.929 165.956 179.761C161.981 172.342 156.792 166.399 148.968 162.388C149.18 166.878 150.861 170.414 153.198 173.551C156.823 178.419 160.772 183.037 164.477 187.841C166.104 189.95 167.382 192.272 165.59 195.803C161.779 187.83 156.516 181.828 148.778 177.706C149.345 182.083 150.596 185.806 153.039 188.975C156.325 193.236 159.919 197.257 163.231 201.502C165.272 204.117 167.498 206.817 165.897 211.003C163.39 207.52 161.35 203.994 158.636 201.107C155.848 198.141 152.403 195.792 148.915 193.454C149.806 198.327 151.82 202.62 154.534 206.471C157.12 210.146 160.163 213.495 163.088 216.92C165.489 219.737 166.507 222.81 166.502 226.624C166.396 279.158 166.433 331.688 166.422 384.222C166.422 385.186 166.284 386.155 166.21 387.119H167.8L167.795 387.146Z" fill="#2E58A1"/>
</g>
<g clip-path="url(#clip3_49_98)">
<path d="M120.825 421.306C120.793 408.444 120.74 395.582 120.73 382.72C120.698 343.324 120.894 303.923 120.459 264.528C120.38 257.109 122.871 251.836 127.71 246.915C132.873 241.669 136.312 235.337 138.332 228.104C131.293 232.2 125.076 237.137 121.768 245.562C120.083 243.208 120.385 241.318 121.408 239.842C123.655 236.588 126.374 233.654 128.59 230.378C131.696 225.787 134.574 221.037 137.415 216.27C137.982 215.317 137.945 214.006 138.332 212.174C130.885 216.781 124.906 221.702 121.98 229.643C121.609 229.537 121.238 229.436 120.873 229.329C120.873 228.077 120.454 226.613 120.952 225.612C122.198 223.108 123.518 220.488 125.415 218.496C130.413 213.25 134.653 207.562 137.357 200.793C137.786 199.712 137.971 198.529 137.892 197.171C131.06 201.336 124.906 206.028 121.986 214.166C119.972 212.105 120.47 210.364 121.318 209.021C123.152 206.124 125.086 203.232 127.366 200.692C131.971 195.568 135.777 190.019 137.913 183.404C138.093 182.845 138.136 182.243 138.39 180.863C131.002 185.481 125.044 190.471 121.943 198.742C120.194 196.452 120.321 194.721 121.403 193.252C124.27 189.337 127.556 185.715 130.206 181.668C132.989 177.418 135.263 172.827 137.669 168.342C138.014 167.703 137.855 166.792 137.982 165.456C131.023 170.265 124.79 174.824 122.113 182.871C120.496 181.066 120.041 180.059 121.249 178.11C123.417 174.611 125.813 171.186 128.563 168.14C132.671 163.592 135.708 158.5 137.728 152.753C137.924 152.189 137.685 151.47 137.648 150.825C137.086 150.916 136.376 150.825 135.989 151.134C132.019 154.33 127.54 157.004 124.89 161.605C123.862 163.395 122.935 165.248 121.837 167.309C120.094 165.52 120.343 163.783 121.175 162.404C122.813 159.698 124.487 156.913 126.661 154.671C131.161 150.016 134.516 144.679 137.15 138.826C137.701 137.607 137.934 136.243 137.987 134.784C130.991 138.885 124.922 143.726 121.731 152.157C119.961 149.111 120.74 147.097 121.991 145.148C123.846 142.261 125.457 139.188 124.832 135.705C123.687 129.341 122.198 123.04 120.851 116.713C120.438 116.724 120.025 116.734 119.606 116.745C118.917 119.419 118.143 122.071 117.565 124.771C116.813 128.308 116.071 131.86 115.599 135.444C115.138 138.991 116.198 142.187 118.106 145.271C119.118 146.906 119.288 149.068 119.839 150.991C119.436 151.225 119.033 151.454 118.631 151.688C114.624 144.339 109.811 137.82 101.723 134.06C102.338 138.342 103.657 141.985 106.095 145.137C109.101 149.025 112.297 152.769 115.334 156.631C116.59 158.223 117.92 159.858 118.71 161.69C119.383 163.261 119.33 165.147 119.595 166.888C119.33 166.963 119.06 167.037 118.795 167.112C116.452 163.815 114.401 160.258 111.693 157.296C109.005 154.357 105.661 152.024 102.237 149.712C102.237 154.064 103.811 157.738 106.191 160.934C109.334 165.152 112.943 169.019 116.171 173.173C118.254 175.857 120.454 178.659 118.869 183.329C114.83 175.426 109.583 169.397 101.829 165.195C102.136 169.674 103.806 173.146 106.106 176.241C109.933 181.391 114.019 186.344 117.958 191.403C119.585 193.491 119.919 195.808 118.694 198.524C115.138 190.631 109.307 185.066 101.384 180.491C102.163 183.042 102.565 185.012 103.345 186.818C106.032 193.081 110.293 198.199 115.026 203.019C116.659 204.681 117.889 206.859 118.874 208.995C119.5 210.358 119.341 212.089 118.986 213.921C115.011 206.502 109.822 200.559 101.998 196.548C102.21 201.038 103.891 204.574 106.228 207.711C109.853 212.579 113.802 217.197 117.507 222.001C119.134 224.11 120.412 226.432 118.62 229.963C114.809 221.99 109.546 215.988 101.808 211.865C102.375 216.243 103.626 219.966 106.069 223.135C109.355 227.396 112.949 231.417 116.261 235.662C118.302 238.277 120.528 240.977 118.927 245.163C116.42 241.68 114.38 238.154 111.666 235.267C108.878 232.301 105.433 229.952 101.945 227.614C102.836 232.487 104.85 236.78 107.564 240.631C110.15 244.305 113.193 247.655 116.118 251.08C118.519 253.897 119.537 256.97 119.532 260.784C119.426 313.318 119.463 365.847 119.452 418.382C119.452 419.346 119.314 420.315 119.24 421.279H120.83L120.825 421.306Z" fill="#2E58A1"/>
</g>
<g clip-path="url(#clip4_49_98)">
<path d="M259.441 304.593C259.41 291.731 259.357 278.869 259.346 266.007C259.314 226.611 259.51 187.21 259.076 147.815C258.996 140.396 261.487 135.123 266.327 130.202C271.489 124.956 274.929 118.623 276.948 111.391C269.91 115.487 263.692 120.424 260.385 128.849C258.699 126.495 259.002 124.604 260.024 123.129C262.272 119.875 264.991 116.94 267.206 113.665C270.312 109.074 273.19 104.323 276.031 99.5568C276.598 98.6035 276.561 97.2933 276.948 95.4612C269.501 100.068 263.523 104.989 260.597 112.93C260.226 112.824 259.855 112.722 259.489 112.616C259.489 111.364 259.07 109.9 259.569 108.898C260.814 106.395 262.134 103.775 264.031 101.783C269.03 96.537 273.27 90.849 275.973 84.0798C276.402 82.9986 276.588 81.8163 276.508 80.4582C269.676 84.623 263.523 89.3151 260.602 97.4531C258.588 95.392 259.086 93.6504 259.934 92.3083C261.768 89.411 263.703 86.519 265.982 83.9786C270.588 78.8551 274.394 73.3055 276.53 66.6908C276.71 66.1315 276.752 65.5297 277.007 64.1503C269.618 68.7678 263.66 73.7582 260.56 82.0293C258.811 79.7392 258.938 78.0083 260.019 76.5383C262.887 72.6238 266.173 69.0022 268.823 64.9545C271.606 60.7045 273.879 56.1135 276.286 51.6291C276.63 50.99 276.471 50.0793 276.598 48.7425C269.639 53.5518 263.406 58.1107 260.729 66.1582C259.113 64.3527 258.657 63.3461 259.865 61.3968C262.033 57.8977 264.429 54.4732 267.18 51.4268C271.288 46.8785 274.325 41.7869 276.344 36.0403C276.54 35.4757 276.302 34.7567 276.265 34.1123C275.703 34.2028 274.992 34.1123 274.606 34.4212C270.636 37.6167 266.157 40.2903 263.507 44.8919C262.479 46.6814 261.551 48.5348 260.454 50.5959C258.71 48.8064 258.959 47.0702 259.791 45.6908C261.429 42.9852 263.104 40.1998 265.277 37.9576C269.777 33.3028 273.132 27.9662 275.766 22.1131C276.318 20.8935 276.551 19.53 276.604 18.0707C269.607 22.1717 263.539 27.0129 260.348 35.4438C258.577 32.3974 259.357 30.3842 260.608 28.4349C262.463 25.5483 264.074 22.4752 263.448 18.9921C262.304 12.6277 260.814 6.32715 259.468 0C259.055 0.0106518 258.641 0.0213035 258.222 0.0319553C257.533 2.70555 256.759 5.35784 256.182 8.05807C255.429 11.5945 254.687 15.1468 254.215 18.7311C253.754 22.2782 254.814 25.4737 256.722 28.5574C257.735 30.1925 257.904 32.3548 258.456 34.2774C258.053 34.5117 257.65 34.7408 257.247 34.9751C253.24 27.6254 248.427 21.1065 240.339 17.3464C240.954 21.6284 242.274 25.2713 244.712 28.4243C247.717 32.3122 250.913 36.0563 253.95 39.9175C255.207 41.51 256.537 43.145 257.327 44.9771C258 46.5482 257.947 48.4336 258.212 50.1752C257.947 50.2497 257.676 50.3243 257.411 50.3989C255.069 47.1021 253.017 43.5444 250.309 40.5833C247.622 37.6434 244.277 35.3106 240.853 32.9992C240.853 37.3504 242.428 41.0253 244.807 44.2208C247.95 48.4389 251.56 52.3055 254.788 56.4597C256.871 59.144 259.07 61.9454 257.486 66.6162C253.447 58.7126 248.2 52.6837 240.445 48.4815C240.753 52.9606 242.422 56.4331 244.723 59.5274C248.549 64.6776 252.636 69.6306 256.574 74.6902C258.201 76.778 258.535 79.0947 257.311 81.8109C253.754 73.918 247.924 68.3524 240 63.7775C240.779 66.3286 241.182 68.2992 241.961 70.1046C244.648 76.3679 248.91 81.4861 253.643 86.306C255.275 87.9677 256.505 90.146 257.491 92.2816C258.116 93.6451 257.957 95.376 257.602 97.2081C253.627 89.7891 248.438 83.8454 240.615 79.835C240.827 84.3248 242.507 87.8612 244.844 90.9981C248.47 95.866 252.419 100.484 256.123 105.287C257.751 107.397 259.028 109.719 257.237 113.25C253.426 105.277 248.162 99.2745 240.424 95.1523C240.991 99.5302 242.242 103.253 244.685 106.422C247.972 110.683 251.565 114.704 254.878 118.948C256.919 121.563 259.145 124.264 257.544 128.45C255.037 124.967 252.996 121.441 250.283 118.554C247.495 115.588 244.049 113.239 240.562 110.901C241.452 115.774 243.466 120.067 246.18 123.917C248.767 127.592 251.809 130.942 254.735 134.367C257.136 137.184 258.153 140.257 258.148 144.071C258.042 196.605 258.079 249.134 258.069 301.669C258.069 302.633 257.931 303.602 257.857 304.566H259.447L259.441 304.593Z" fill="#2E58A1"/>
</g>
<g clip-path="url(#clip5_49_98)">
<path d="M304.435 351.563C304.403 338.701 304.35 325.839 304.339 312.977C304.308 273.581 304.504 234.18 304.069 194.785C303.99 187.366 306.481 182.093 311.32 177.172C316.482 171.926 319.922 165.593 321.942 158.361C314.903 162.456 308.686 167.394 305.378 175.819C303.693 173.465 303.995 171.574 305.018 170.099C307.265 166.845 309.984 163.91 312.2 160.635C315.306 156.044 318.184 151.293 321.025 146.527C321.592 145.573 321.555 144.263 321.942 142.431C314.495 147.038 308.516 151.959 305.59 159.9C305.219 159.794 304.848 159.692 304.483 159.586C304.483 158.334 304.064 156.87 304.562 155.868C305.808 153.365 307.127 150.745 309.025 148.753C314.023 143.507 318.263 137.819 320.966 131.05C321.396 129.969 321.581 128.786 321.502 127.428C314.67 131.593 308.516 136.285 305.596 144.423C303.582 142.362 304.08 140.62 304.928 139.278C306.762 136.381 308.696 133.489 310.975 130.949C315.581 125.825 319.387 120.275 321.523 113.661C321.703 113.102 321.746 112.5 322 111.12C314.611 115.738 308.654 120.728 305.553 128.999C303.804 126.709 303.931 124.978 305.013 123.508C307.88 119.594 311.166 115.972 313.816 111.924C316.599 107.674 318.873 103.084 321.279 98.5991C321.624 97.96 321.465 97.0493 321.592 95.7125C314.633 100.522 308.399 105.081 305.723 113.128C304.106 111.323 303.65 110.316 304.859 108.367C307.027 104.868 309.422 101.443 312.173 98.3967C316.281 93.8484 319.318 88.7569 321.337 83.0102C321.534 82.4457 321.295 81.7267 321.258 81.0823C320.696 81.1728 319.986 81.0823 319.599 81.3912C315.629 84.5867 311.15 87.2603 308.5 91.8619C307.472 93.6514 306.544 95.5048 305.447 97.5659C303.703 95.7764 303.953 94.0402 304.785 92.6608C306.422 89.9552 308.097 87.1698 310.27 84.9276C314.77 80.2727 318.125 74.9362 320.76 69.0831C321.311 67.8634 321.544 66.5 321.597 65.0407C314.601 69.1416 308.532 73.9829 305.341 82.4137C303.571 79.3673 304.35 77.3542 305.601 75.4049C307.456 72.5182 309.067 69.4452 308.442 65.9621C307.297 59.5976 305.808 53.2971 304.461 46.97C304.048 46.9806 303.635 46.9913 303.216 47.0019C302.527 49.6755 301.753 52.3278 301.175 55.028C300.423 58.5644 299.68 62.1168 299.209 65.7011C298.748 69.2482 299.808 72.4437 301.716 75.5274C302.728 77.1624 302.898 79.3247 303.449 81.2474C303.046 81.4817 302.643 81.7107 302.241 81.9451C298.234 74.5953 293.421 68.0765 285.333 64.3164C285.947 68.5984 287.267 72.2413 289.705 75.3942C292.711 79.2821 295.907 83.0262 298.944 86.8875C300.2 88.4799 301.53 90.115 302.32 91.9471C302.993 93.5182 302.94 95.4036 303.205 97.1451C302.94 97.2197 302.67 97.2943 302.405 97.3688C300.062 94.0721 298.011 90.5144 295.302 87.5532C292.615 84.6133 289.271 82.2806 285.847 79.9692C285.847 84.3204 287.421 87.9953 289.801 91.1908C292.944 95.4089 296.553 99.2755 299.781 103.43C301.864 106.114 304.064 108.915 302.479 113.586C298.44 105.683 293.193 99.6536 285.439 95.4515C285.746 99.9306 287.416 103.403 289.716 106.497C293.543 111.648 297.629 116.601 301.567 121.66C303.195 123.748 303.529 126.065 302.304 128.781C298.748 120.888 292.917 115.322 284.993 110.747C285.773 113.299 286.175 115.269 286.955 117.075C289.642 123.338 293.903 128.456 298.636 133.276C300.269 134.938 301.498 137.116 302.484 139.252C303.11 140.615 302.951 142.346 302.596 144.178C298.62 136.759 293.431 130.815 285.608 126.805C285.82 131.295 287.5 134.831 289.838 137.968C293.463 142.836 297.412 147.453 301.117 152.257C302.744 154.366 304.021 156.689 302.23 160.22C298.419 152.247 293.156 146.244 285.417 142.122C285.985 146.5 287.235 150.223 289.679 153.392C292.965 157.653 296.559 161.674 299.871 165.918C301.912 168.533 304.138 171.234 302.537 175.42C300.03 171.937 297.99 168.411 295.276 165.524C292.488 162.558 289.043 160.209 285.555 157.871C286.446 162.744 288.46 167.037 291.174 170.887C293.76 174.562 296.802 177.912 299.728 181.337C302.129 184.154 303.147 187.227 303.142 191.041C303.036 243.575 303.073 296.104 303.062 348.639C303.062 349.603 302.924 350.572 302.85 351.536H304.44L304.435 351.563Z" fill="#2E58A1"/>
</g>
<g clip-path="url(#clip6_49_98)">
<path d="M63.5651 445.593C63.597 432.731 63.65 419.869 63.6606 407.007C63.6924 367.611 63.4962 328.21 63.9309 288.815C64.0104 281.396 61.5192 276.123 56.6801 271.202C51.5176 265.956 48.0777 259.623 46.0583 252.391C53.0971 256.487 59.3143 261.424 62.6217 269.849C64.3072 267.495 64.0051 265.604 62.9821 264.129C60.7348 260.875 58.0157 257.94 55.8002 254.665C52.6943 250.074 49.8162 245.323 46.9753 240.557C46.4081 239.603 46.4452 238.293 46.0583 236.461C53.5052 241.068 59.4839 245.989 62.4097 253.93C62.7807 253.824 63.1517 253.722 63.5174 253.616C63.5174 252.364 63.9362 250.9 63.4379 249.898C62.1924 247.395 60.8726 244.775 58.9751 242.783C53.9769 237.537 49.7367 231.849 47.0336 225.08C46.6042 223.999 46.4187 222.816 46.4982 221.458C53.3303 225.623 59.4839 230.315 62.4044 238.453C64.4185 236.392 63.9203 234.65 63.0722 233.308C61.2383 230.411 59.3037 227.519 57.0246 224.979C52.4186 219.855 48.613 214.306 46.477 207.691C46.2968 207.132 46.2544 206.53 46 205.15C53.3886 209.768 59.3461 214.758 62.4468 223.029C64.1959 220.739 64.0687 219.008 62.9874 217.538C60.12 213.624 56.8338 210.002 54.1836 205.955C51.401 201.704 49.1272 197.114 46.7208 192.629C46.3763 191.99 46.5353 191.079 46.4081 189.743C53.3674 194.552 59.6005 199.111 62.2772 207.158C63.8938 205.353 64.3496 204.346 63.1411 202.397C60.9733 198.898 58.5776 195.473 55.8267 192.427C51.719 187.878 48.6819 182.787 46.6625 177.04C46.4664 176.476 46.7049 175.757 46.742 175.112C47.3039 175.203 48.0141 175.112 48.401 175.421C52.3709 178.617 56.8497 181.29 59.4998 185.892C60.5281 187.681 61.4556 189.535 62.5528 191.596C64.2966 189.806 64.0475 188.07 63.2153 186.691C61.5775 183.985 59.9027 181.2 57.7295 178.958C53.2296 174.303 49.8745 168.966 47.2403 163.113C46.689 161.893 46.4558 160.53 46.4028 159.071C53.3992 163.172 59.468 168.013 62.6588 176.444C64.4291 173.397 63.65 171.384 62.3991 169.435C60.544 166.548 58.9327 163.475 59.5581 159.992C60.703 153.628 62.1924 147.327 63.5386 141C63.9521 141.011 64.3655 141.021 64.7842 141.032C65.4733 143.706 66.2471 146.358 66.8248 149.058C67.5775 152.594 68.3195 156.147 68.7912 159.731C69.2524 163.278 68.1923 166.474 66.2842 169.557C65.2718 171.192 65.1022 173.355 64.551 175.277C64.9538 175.512 65.3566 175.741 65.7595 175.975C69.7665 168.625 74.5791 162.106 82.6674 158.346C82.0525 162.628 80.7328 166.271 78.2946 169.424C75.2894 173.312 72.0933 177.056 69.0562 180.918C67.8001 182.51 66.4697 184.145 65.68 185.977C65.0068 187.548 65.0598 189.434 64.7948 191.175C65.0598 191.25 65.3301 191.324 65.5952 191.399C67.9379 188.102 69.9891 184.544 72.6975 181.583C75.3848 178.643 78.7293 176.311 82.1533 173.999C82.1533 178.35 80.5791 182.025 78.1992 185.221C75.0562 189.439 71.4467 193.306 68.2188 197.46C66.1358 200.144 63.9362 202.945 65.521 207.616C69.5598 199.713 74.8071 193.684 82.5614 189.482C82.254 193.961 80.5844 197.433 78.284 200.527C74.4572 205.678 70.3707 210.631 66.4326 215.69C64.8054 217.778 64.4715 220.095 65.6959 222.811C69.2524 214.918 75.0827 209.352 83.0066 204.777C82.2275 207.329 81.8246 209.299 81.0455 211.105C78.3582 217.368 74.0968 222.486 69.3637 227.306C67.7312 228.968 66.5015 231.146 65.5157 233.282C64.8902 234.645 65.0492 236.376 65.4043 238.208C69.3796 230.789 74.5685 224.845 82.3918 220.835C82.1798 225.325 80.4996 228.861 78.1621 231.998C74.5367 236.866 70.588 241.484 66.8831 246.287C65.2559 248.397 63.9786 250.719 65.7701 254.25C69.581 246.277 74.8442 240.275 82.5826 236.152C82.0154 240.53 80.7646 244.253 78.3211 247.422C75.035 251.683 71.4414 255.704 68.1287 259.948C66.0881 262.563 63.862 265.264 65.4627 269.45C67.9697 265.967 70.0103 262.441 72.724 259.554C75.512 256.588 78.9572 254.239 82.4448 251.901C81.5543 256.774 79.5402 261.067 76.8265 264.917C74.2399 268.592 71.1976 271.942 68.2718 275.367C65.8708 278.184 64.8531 281.257 64.8584 285.071C64.9644 337.605 64.9273 390.134 64.9379 442.669C64.9379 443.633 65.0757 444.602 65.1499 445.566H63.5598L63.5651 445.593Z" fill="#2E58A1"/>
</g>
</g>
<defs>
<clipPath id="clip0_49_98">
<rect width="322" height="281" fill="white" transform="matrix(-1 0 0 1 322 0)"/>
</clipPath>
<clipPath id="clip1_49_98">
<rect width="37.0066" height="304.593" fill="white" transform="matrix(-1 0 0 1 232.33 82.5532)"/>
</clipPath>
<clipPath id="clip2_49_98">
<rect width="37.0066" height="304.593" fill="white" transform="matrix(-1 0 0 1 185.36 82.5532)"/>
</clipPath>
<clipPath id="clip3_49_98">
<rect width="37.0066" height="304.593" fill="white" transform="matrix(-1 0 0 1 138.39 116.713)"/>
</clipPath>
<clipPath id="clip4_49_98">
<rect width="37.0066" height="304.593" fill="white" transform="matrix(-1 0 0 1 277.007 0)"/>
</clipPath>
<clipPath id="clip5_49_98">
<rect width="37.0066" height="304.593" fill="white" transform="matrix(-1 0 0 1 322 46.97)"/>
</clipPath>
<clipPath id="clip6_49_98">
<rect width="37" height="140" fill="white" transform="translate(46 141)"/>
</clipPath>
</defs>
</svg>
