<svg width="473" height="413" viewBox="0 0 473 413" fill="none" xmlns="http://www.w3.org/2000/svg">
<g clip-path="url(#clip0_57_2268)">
<g clip-path="url(#clip1_57_2268)">
<path d="M314.718 568.341C314.671 549.459 314.593 530.577 314.578 511.695C314.531 453.862 314.819 396.02 314.181 338.186C314.064 327.295 317.721 319.555 324.825 312.33C332.404 304.629 337.454 295.333 340.418 284.715C330.085 290.728 320.958 297.975 316.103 310.344C313.628 306.889 314.072 304.113 315.574 301.947C318.873 297.17 322.864 292.862 326.117 288.054C330.677 281.314 334.902 274.34 339.072 267.342C339.905 265.943 339.85 264.019 340.418 261.33C329.486 268.093 320.709 275.317 316.414 286.975C315.869 286.818 315.325 286.67 314.788 286.513C314.788 284.676 314.173 282.526 314.905 281.056C316.733 277.381 318.671 273.535 321.456 270.611C328.794 262.909 335.018 254.559 338.987 244.622C339.617 243.035 339.889 241.299 339.772 239.305C329.743 245.419 320.709 252.307 316.422 264.254C313.465 261.228 314.196 258.672 315.441 256.701C318.134 252.448 320.974 248.203 324.32 244.473C331.081 236.952 336.668 228.805 339.804 219.094C340.068 218.273 340.13 217.39 340.504 215.365C329.657 222.143 320.911 229.469 316.36 241.612C313.792 238.25 313.979 235.709 315.566 233.551C319.775 227.804 324.6 222.487 328.49 216.545C332.575 210.306 335.913 203.566 339.446 196.983C339.951 196.045 339.718 194.708 339.905 192.746C329.688 199.806 320.538 206.498 316.609 218.312C314.235 215.662 313.566 214.184 315.34 211.322C318.523 206.186 322.04 201.158 326.078 196.686C332.108 190.009 336.567 182.535 339.531 174.098C339.819 173.27 339.469 172.214 339.415 171.268C338.59 171.401 337.547 171.268 336.979 171.722C331.151 176.413 324.576 180.338 320.686 187.093C319.176 189.72 317.815 192.441 316.204 195.466C313.644 192.839 314.01 190.291 315.231 188.266C317.636 184.294 320.094 180.205 323.285 176.913C329.891 170.08 334.816 162.245 338.683 153.653C339.492 151.862 339.835 149.861 339.913 147.719C329.642 153.739 320.732 160.846 316.048 173.223C313.449 168.751 314.593 165.795 316.43 162.934C319.153 158.696 321.518 154.185 320.6 149.071C318.92 139.728 316.733 130.479 314.757 121.19C314.15 121.206 313.543 121.222 312.928 121.237C311.917 125.162 310.781 129.056 309.933 133.02C308.828 138.211 307.738 143.426 307.046 148.688C306.369 153.895 307.925 158.586 310.726 163.113C312.212 165.514 312.461 168.688 313.271 171.51C312.679 171.854 312.088 172.191 311.496 172.535C305.614 161.745 298.549 152.175 286.675 146.655C287.578 152.941 289.515 158.289 293.095 162.918C297.506 168.625 302.198 174.122 306.657 179.79C308.501 182.128 310.454 184.528 311.613 187.218C312.601 189.524 312.524 192.292 312.913 194.849C312.524 194.958 312.127 195.068 311.738 195.177C308.299 190.338 305.287 185.115 301.311 180.768C297.366 176.452 292.456 173.027 287.43 169.634C287.43 176.022 289.741 181.417 293.235 186.108C297.849 192.3 303.148 197.976 307.886 204.075C310.944 208.015 314.173 212.128 311.847 218.985C305.918 207.382 298.214 198.531 286.831 192.363C287.282 198.938 289.733 204.036 293.11 208.578C298.728 216.139 304.727 223.41 310.508 230.838C312.897 233.902 313.387 237.304 311.59 241.291C306.369 229.704 297.81 221.534 286.177 214.817C287.321 218.562 287.912 221.455 289.056 224.106C293.001 233.3 299.257 240.814 306.205 247.89C308.602 250.329 310.407 253.527 311.854 256.662C312.773 258.664 312.539 261.205 312.018 263.894C306.182 253.003 298.565 244.278 287.08 238.39C287.391 244.981 289.858 250.173 293.289 254.778C298.611 261.924 304.408 268.703 309.847 275.755C312.236 278.851 314.111 282.26 311.481 287.444C305.886 275.739 298.16 266.928 286.8 260.876C287.632 267.303 289.469 272.768 293.056 277.42C297.88 283.675 303.155 289.578 308.018 295.81C311.014 299.649 314.282 303.613 311.932 309.758C308.252 304.645 305.256 299.469 301.272 295.231C297.18 290.876 292.122 287.428 287.002 283.996C288.309 291.15 291.266 297.452 295.25 303.104C299.047 308.499 303.513 313.417 307.808 318.444C311.333 322.58 312.827 327.092 312.819 332.69C312.664 409.812 312.718 486.926 312.703 564.048C312.703 565.463 312.5 566.886 312.391 568.302H314.726L314.718 568.341Z" fill="#F7D747"/>
</g>
<g clip-path="url(#clip2_57_2268)">
<path d="M245.765 568.341C245.718 549.459 245.64 530.577 245.625 511.695C245.578 453.862 245.866 396.02 245.228 338.186C245.111 327.295 248.768 319.555 255.872 312.33C263.451 304.629 268.501 295.333 271.465 284.715C261.132 290.728 252.005 297.975 247.15 310.344C244.675 306.889 245.119 304.113 246.621 301.947C249.92 297.17 253.911 292.862 257.164 288.054C261.723 281.314 265.948 274.34 270.119 267.342C270.952 265.943 270.897 264.019 271.465 261.33C260.533 268.093 251.756 275.317 247.461 286.975C246.916 286.818 246.372 286.67 245.835 286.513C245.835 284.676 245.22 282.526 245.951 281.056C247.78 277.381 249.717 273.535 252.503 270.611C259.84 262.909 266.065 254.559 270.033 244.622C270.664 243.035 270.936 241.299 270.819 239.305C260.79 245.419 251.756 252.307 247.469 264.254C244.512 261.228 245.243 258.672 246.488 256.701C249.181 252.448 252.021 248.203 255.366 244.473C262.128 236.952 267.715 228.805 270.85 219.094C271.115 218.273 271.177 217.39 271.551 215.365C260.704 222.143 251.958 229.469 247.406 241.612C244.839 238.25 245.025 235.709 246.613 233.551C250.822 227.804 255.646 222.487 259.537 216.545C263.622 210.306 266.96 203.566 270.493 196.983C270.998 196.045 270.765 194.708 270.952 192.746C260.735 199.806 251.585 206.498 247.655 218.312C245.282 215.662 244.613 214.184 246.387 211.322C249.57 206.186 253.087 201.158 257.125 196.686C263.155 190.009 267.614 182.535 270.578 174.098C270.866 173.27 270.516 172.214 270.461 171.268C269.637 171.401 268.594 171.268 268.026 171.722C262.198 176.413 255.623 180.338 251.733 187.093C250.223 189.72 248.861 192.441 247.251 195.466C244.691 192.839 245.057 190.291 246.278 188.266C248.683 184.294 251.141 180.205 254.332 176.913C260.938 170.08 265.863 162.245 269.73 153.653C270.539 151.862 270.882 149.861 270.959 147.719C260.689 153.739 251.779 160.846 247.095 173.223C244.496 168.751 245.64 165.795 247.476 162.934C250.2 158.696 252.565 154.185 251.647 149.071C249.966 139.728 247.78 130.479 245.804 121.19C245.197 121.206 244.59 121.222 243.975 121.237C242.964 125.162 241.828 129.056 240.979 133.02C239.874 138.211 238.785 143.426 238.093 148.688C237.416 153.895 238.972 158.586 241.773 163.113C243.259 165.514 243.508 168.688 244.317 171.51C243.726 171.854 243.135 172.191 242.543 172.535C236.661 161.745 229.596 152.175 217.722 146.655C218.625 152.941 220.562 158.289 224.141 162.918C228.553 168.625 233.245 174.122 237.704 179.79C239.548 182.128 241.501 184.528 242.66 187.218C243.648 189.524 243.57 192.292 243.959 194.849C243.57 194.958 243.174 195.068 242.785 195.177C239.345 190.338 236.334 185.115 232.358 180.768C228.413 176.452 223.503 173.027 218.477 169.634C218.477 176.022 220.788 181.417 224.281 186.108C228.896 192.3 234.194 197.976 238.933 204.075C241.991 208.015 245.22 212.128 242.893 218.985C236.964 207.382 229.261 198.531 217.878 192.363C218.329 198.938 220.78 204.036 224.157 208.578C229.775 216.139 235.774 223.41 241.555 230.838C243.944 233.902 244.434 237.304 242.637 241.291C237.416 229.704 228.857 221.534 217.224 214.817C218.368 218.562 218.959 221.455 220.103 224.106C224.048 233.3 230.304 240.814 237.252 247.89C239.649 250.329 241.454 253.527 242.901 256.662C243.819 258.664 243.586 261.205 243.065 263.894C237.229 253.003 229.611 244.278 218.127 238.39C218.438 244.981 220.904 250.173 224.336 254.778C229.658 261.924 235.455 268.703 240.894 275.755C243.283 278.851 245.158 282.26 242.528 287.444C236.933 275.739 229.207 266.928 217.847 260.876C218.679 267.303 220.515 272.768 224.102 277.42C228.927 283.675 234.202 289.578 239.065 295.81C242.061 299.649 245.329 303.613 242.979 309.758C239.299 304.645 236.303 299.469 232.319 295.231C228.226 290.876 223.169 287.428 218.049 283.996C219.356 291.15 222.313 297.452 226.297 303.104C230.094 308.499 234.56 313.417 238.855 318.444C242.38 322.58 243.874 327.092 243.866 332.69C243.71 409.812 243.765 486.926 243.749 564.048C243.749 565.463 243.547 566.886 243.438 568.302H245.772L245.765 568.341Z" fill="#F7D747"/>
</g>
<g clip-path="url(#clip3_57_2268)">
<path d="M176.808 618.488C176.761 599.607 176.683 580.725 176.668 561.843C176.621 504.009 176.909 446.168 176.271 388.334C176.154 377.443 179.811 369.702 186.915 362.478C194.494 354.777 199.544 345.48 202.508 334.863C192.175 340.875 183.048 348.123 178.193 360.492C175.718 357.036 176.162 354.261 177.664 352.095C180.963 347.318 184.954 343.01 188.207 338.201C192.766 331.462 196.991 324.488 201.162 317.49C201.995 316.091 201.94 314.167 202.508 311.478C191.576 318.241 182.799 325.465 178.504 337.122C177.959 336.966 177.415 336.818 176.878 336.661C176.878 334.824 176.263 332.674 176.994 331.204C178.823 327.529 180.76 323.682 183.546 320.758C190.883 313.057 197.108 304.707 201.076 294.769C201.707 293.182 201.979 291.447 201.862 289.453C191.833 295.567 182.799 302.455 178.512 314.402C175.555 311.376 176.286 308.819 177.531 306.849C180.223 302.596 183.064 298.35 186.409 294.621C193.171 287.099 198.758 278.952 201.893 269.242C202.158 268.421 202.22 267.537 202.594 265.512C191.747 272.291 183.001 279.617 178.449 291.759C175.882 288.397 176.068 285.856 177.656 283.698C181.865 277.952 186.689 272.635 190.58 266.693C194.665 260.454 198.003 253.714 201.536 247.131C202.041 246.193 201.808 244.856 201.995 242.893C191.778 249.953 182.628 256.646 178.698 268.46C176.325 265.809 175.656 264.332 177.43 261.47C180.613 256.333 184.13 251.306 188.168 246.834C194.198 240.157 198.657 232.682 201.621 224.246C201.909 223.417 201.559 222.362 201.504 221.416C200.68 221.549 199.637 221.416 199.069 221.869C193.241 226.56 186.666 230.485 182.776 237.241C181.266 239.868 179.904 242.588 178.294 245.614C175.734 242.987 176.1 240.438 177.321 238.413C179.726 234.441 182.184 230.352 185.374 227.061C191.981 220.227 196.906 212.393 200.773 203.801C201.582 202.01 201.925 200.009 202.002 197.866C191.732 203.887 182.822 210.994 178.138 223.37C175.539 218.898 176.683 215.943 178.519 213.081C181.243 208.844 183.608 204.332 182.69 199.219C181.009 189.876 178.823 180.626 176.847 171.338C176.24 171.354 175.633 171.369 175.018 171.385C174.006 175.31 172.87 179.203 172.022 183.167C170.917 188.359 169.828 193.574 169.136 198.836C168.459 204.043 170.015 208.734 172.816 213.261C174.302 215.661 174.551 218.836 175.36 221.658C174.769 222.002 174.178 222.338 173.586 222.682C167.704 211.893 160.639 202.323 148.765 196.803C149.668 203.089 151.605 208.437 155.184 213.066C159.596 218.773 164.288 224.27 168.747 229.938C170.591 232.276 172.544 234.676 173.703 237.366C174.691 239.672 174.613 242.44 175.002 244.997C174.613 245.106 174.217 245.215 173.828 245.325C170.388 240.485 167.377 235.262 163.401 230.915C159.456 226.599 154.546 223.175 149.52 219.782C149.52 226.169 151.831 231.564 155.324 236.255C159.939 242.448 165.237 248.124 169.976 254.222C173.034 258.163 176.263 262.276 173.936 269.132C168.007 257.53 160.304 248.679 148.921 242.51C149.372 249.086 151.823 254.183 155.2 258.726C160.818 266.286 166.817 273.558 172.598 280.985C174.987 284.05 175.477 287.451 173.68 291.439C168.459 279.852 159.9 271.681 148.267 264.965C149.411 268.71 150.002 271.603 151.146 274.254C155.091 283.448 161.347 290.962 168.295 298.038C170.692 300.477 172.497 303.675 173.944 306.81C174.862 308.811 174.629 311.353 174.108 314.042C168.272 303.151 160.654 294.425 149.17 288.538C149.481 295.129 151.947 300.321 155.379 304.926C160.701 312.072 166.498 318.85 171.937 325.903C174.326 328.999 176.201 332.408 173.571 337.592C167.976 325.887 160.25 317.076 148.89 311.024C149.722 317.451 151.558 322.916 155.145 327.568C159.97 333.823 165.245 339.726 170.108 345.957C173.104 349.796 176.372 353.76 174.022 359.906C170.342 354.792 167.346 349.616 163.362 345.379C159.269 341.024 154.212 337.576 149.092 334.144C150.399 341.298 153.356 347.599 157.34 353.252C161.137 358.647 165.603 363.565 169.898 368.592C173.423 372.728 174.917 377.239 174.909 382.837C174.753 459.96 174.808 537.074 174.792 614.196C174.792 615.611 174.59 617.034 174.481 618.449H176.815L176.808 618.488Z" fill="#F7D747"/>
</g>
<g clip-path="url(#clip4_57_2268)">
<path d="M380.304 447.15C380.257 428.268 380.179 409.387 380.164 390.505C380.117 332.671 380.405 274.829 379.767 216.996C379.65 206.104 383.307 198.364 390.411 191.14C397.99 183.438 403.04 174.142 406.004 163.525C395.671 169.537 386.544 176.785 381.689 189.154C379.214 185.698 379.658 182.922 381.16 180.757C384.459 175.98 388.45 171.672 391.703 166.863C396.262 160.124 400.488 153.149 404.658 146.152C405.491 144.752 405.436 142.829 406.004 140.139C395.072 146.902 386.295 154.127 382 165.784C381.455 165.628 380.911 165.479 380.374 165.323C380.374 163.486 379.759 161.335 380.49 159.866C382.319 156.191 384.256 152.344 387.042 149.42C394.379 141.719 400.604 133.368 404.573 123.431C405.203 121.844 405.475 120.108 405.358 118.115C395.329 124.229 386.295 131.117 382.008 143.063C379.051 140.038 379.782 137.481 381.027 135.511C383.72 131.257 386.56 127.012 389.905 123.283C396.667 115.761 402.254 107.614 405.39 97.9036C405.654 97.0826 405.716 96.1991 406.09 94.1741C395.243 100.953 386.497 108.279 381.946 120.421C379.378 117.059 379.565 114.518 381.152 112.36C385.361 106.613 390.186 101.297 394.076 95.3547C398.161 89.1155 401.499 82.3759 405.032 75.7927C405.537 74.8545 405.304 73.5175 405.491 71.5551C395.274 78.6152 386.124 85.3079 382.195 97.1217C379.821 94.4712 379.152 92.9935 380.926 90.1319C384.109 84.9952 387.626 79.9678 391.664 75.4956C397.694 68.8186 402.153 61.3441 405.117 52.9078C405.405 52.0791 405.055 51.0236 405.001 50.0775C404.176 50.2104 403.133 50.0775 402.565 50.531C396.737 55.2221 390.162 59.147 386.272 65.9023C384.762 68.5293 383.401 71.2502 381.79 74.2759C379.23 71.6489 379.596 69.1001 380.817 67.0751C383.222 63.1032 385.68 59.0141 388.871 55.7225C395.477 48.8891 400.402 41.0549 404.269 32.4624C405.078 30.6719 405.421 28.6704 405.498 26.5281C395.228 32.5484 386.318 39.6554 381.634 52.0322C379.035 47.56 380.179 44.6046 382.016 41.743C384.739 37.5053 387.104 32.994 386.186 27.8807C384.505 18.5375 382.319 9.28819 380.343 -0.000244141C379.736 0.0153929 379.129 0.03103 378.514 0.0466671C377.503 3.97158 376.367 7.86521 375.518 11.8292C374.414 17.0207 373.324 22.2357 372.632 27.4976C371.955 32.7047 373.511 37.3959 376.312 41.9228C377.798 44.3231 378.047 47.4974 378.856 50.3199C378.265 50.6639 377.674 51.0001 377.082 51.3441C371.2 40.5545 364.135 30.9846 352.261 25.4648C353.164 31.7509 355.101 37.0987 358.68 41.7273C363.092 47.4349 367.784 52.9313 372.243 58.5997C374.087 60.9375 376.04 63.3378 377.199 66.0274C378.187 68.3338 378.11 71.1016 378.499 73.6583C378.11 73.7677 377.713 73.8772 377.324 73.9866C373.884 69.147 370.873 63.9242 366.897 59.5771C362.952 55.2612 358.042 51.8367 353.016 48.4435C353.016 54.8312 355.327 60.226 358.82 64.9171C363.435 71.1094 368.733 76.7857 373.472 82.8841C376.53 86.8247 379.759 90.9372 377.433 97.7941C371.503 86.1914 363.8 77.3408 352.417 71.172C352.868 77.7474 355.319 82.8451 358.696 87.3876C364.314 94.9482 370.313 102.219 376.094 109.647C378.483 112.712 378.973 116.113 377.176 120.1C371.955 108.513 363.396 100.343 351.763 93.6268C352.907 97.3719 353.498 100.265 354.642 102.915C358.587 112.11 364.843 119.623 371.791 126.699C374.188 129.139 375.993 132.336 377.44 135.472C378.358 137.473 378.125 140.014 377.604 142.704C371.768 131.813 364.15 123.087 352.666 117.2C352.977 123.791 355.444 128.982 358.875 133.587C364.197 140.734 369.994 147.512 375.433 154.565C377.822 157.661 379.697 161.07 377.067 166.253C371.472 154.549 363.746 145.737 352.386 139.686C353.218 146.113 355.055 151.578 358.642 156.23C363.466 162.485 368.741 168.388 373.604 174.619C376.6 178.458 379.868 182.422 377.518 188.567C373.838 183.454 370.842 178.278 366.858 174.041C362.765 169.686 357.708 166.238 352.588 162.805C353.895 169.959 356.852 176.261 360.836 181.914C364.633 187.309 369.099 192.226 373.394 197.254C376.919 201.39 378.413 205.901 378.405 211.499C378.25 288.621 378.304 365.736 378.288 442.858C378.288 444.273 378.086 445.696 377.977 447.111H380.312L380.304 447.15Z" fill="#F7D747"/>
</g>
<g clip-path="url(#clip5_57_2268)">
<path d="M446.355 516.103C446.308 497.221 446.23 478.34 446.214 459.458C446.168 401.624 446.456 343.783 445.818 285.949C445.701 275.058 449.358 267.317 456.462 260.093C464.041 252.392 469.09 243.095 472.055 232.478C461.722 238.49 452.595 245.738 447.74 258.107C445.265 254.651 445.709 251.876 447.21 249.71C450.51 244.933 454.501 240.625 457.754 235.816C462.313 229.077 466.538 222.103 470.709 215.105C471.541 213.705 471.487 211.782 472.055 209.092C461.123 215.856 452.346 223.08 448.051 234.737C447.506 234.581 446.961 234.432 446.425 234.276C446.425 232.439 445.81 230.289 446.541 228.819C448.37 225.144 450.307 221.297 453.093 218.373C460.43 210.672 466.655 202.322 470.623 192.384C471.254 190.797 471.526 189.061 471.409 187.068C461.38 193.182 452.346 200.07 448.059 212.017C445.102 208.991 445.833 206.434 447.078 204.464C449.77 200.211 452.61 195.965 455.956 192.236C462.718 184.714 468.305 176.567 471.44 166.857C471.705 166.036 471.767 165.152 472.141 163.127C461.294 169.906 452.548 177.232 447.996 189.374C445.429 186.012 445.615 183.471 447.203 181.313C451.412 175.567 456.236 170.25 460.127 164.308C464.212 158.069 467.55 151.329 471.082 144.746C471.588 143.808 471.355 142.471 471.541 140.508C461.325 147.568 452.175 154.261 448.245 166.075C445.872 163.424 445.203 161.947 446.977 159.085C450.159 153.948 453.676 148.921 457.715 144.449C463.745 137.772 468.203 130.297 471.168 121.861C471.456 121.032 471.106 119.977 471.051 119.031C470.227 119.164 469.184 119.031 468.616 119.484C462.788 124.175 456.213 128.1 452.323 134.855C450.813 137.482 449.451 140.203 447.841 143.229C445.281 140.602 445.646 138.053 446.868 136.028C449.272 132.056 451.731 127.967 454.921 124.676C461.527 117.842 466.453 110.008 470.32 101.415C471.129 99.625 471.471 97.6235 471.549 95.4812C461.278 101.501 452.369 108.609 447.685 120.985C445.086 116.513 446.23 113.558 448.066 110.696C450.79 106.458 453.155 101.947 452.237 96.8338C450.556 87.4907 448.37 78.2413 446.393 68.9529C445.787 68.9685 445.18 68.9842 444.565 68.9998C443.553 72.9247 442.417 76.8183 441.569 80.7823C440.464 85.9739 439.375 91.1888 438.682 96.4507C438.006 101.658 439.562 106.349 442.363 110.876C443.849 113.276 444.098 116.451 444.907 119.273C444.316 119.617 443.725 119.953 443.133 120.297C437.251 109.508 430.186 99.9378 418.312 94.4179C419.215 100.704 421.152 106.052 424.731 110.68C429.143 116.388 433.835 121.884 438.293 127.553C440.138 129.891 442.091 132.291 443.25 134.98C444.238 137.287 444.16 140.055 444.549 142.611C444.16 142.721 443.763 142.83 443.374 142.94C439.935 138.1 436.924 132.877 432.948 128.53C429.003 124.214 424.093 120.79 419.067 117.397C419.067 123.784 421.378 129.179 424.871 133.87C429.485 140.063 434.784 145.739 439.523 151.837C442.581 155.778 445.81 159.89 443.483 166.747C437.554 155.145 429.851 146.294 418.468 140.125C418.919 146.7 421.37 151.798 424.747 156.341C430.365 163.901 436.364 171.173 442.145 178.6C444.534 181.665 445.024 185.066 443.227 189.054C438.006 177.466 429.446 169.296 417.814 162.58C418.958 166.325 419.549 169.218 420.693 171.868C424.638 181.063 430.894 188.577 437.842 195.652C440.239 198.092 442.044 201.29 443.491 204.425C444.409 206.426 444.176 208.967 443.655 211.657C437.819 200.766 430.201 192.04 418.717 186.153C419.028 192.744 421.494 197.935 424.926 202.541C430.248 209.687 436.045 216.465 441.484 223.518C443.872 226.614 445.748 230.023 443.118 235.206C437.523 223.502 429.797 214.691 418.436 208.639C419.269 215.066 421.105 220.531 424.692 225.183C429.517 231.438 434.792 237.341 439.655 243.572C442.651 247.411 445.919 251.375 443.569 257.521C439.889 252.407 436.893 247.231 432.909 242.994C428.816 238.639 423.759 235.191 418.639 231.758C419.946 238.912 422.903 245.214 426.887 250.867C430.684 256.262 435.15 261.18 439.445 266.207C442.97 270.343 444.464 274.854 444.456 280.452C444.3 357.574 444.355 434.689 444.339 511.811C444.339 513.226 444.137 514.649 444.028 516.064H446.362L446.355 516.103Z" fill="#F7D747"/>
</g>
<g clip-path="url(#clip6_57_2268)">
<path d="M93.3135 654.142C93.3601 635.26 93.4379 616.379 93.4535 597.497C93.5002 539.663 93.2123 481.821 93.8503 423.988C93.9671 413.096 90.31 405.356 83.206 398.132C75.6273 390.43 70.5775 381.134 67.6129 370.517C77.9461 376.529 87.0731 383.777 91.9284 396.146C94.4028 392.69 93.9593 389.914 92.4575 387.749C89.1584 382.971 85.1668 378.663 81.9143 373.855C77.3547 367.115 73.1296 360.141 68.959 353.144C68.1265 351.744 68.1809 349.821 67.6129 347.131C78.5452 353.894 87.3221 361.119 91.6172 372.776C92.1619 372.62 92.7065 372.471 93.2434 372.315C93.2434 370.477 93.8581 368.327 93.1267 366.857C91.2982 363.183 89.3607 359.336 86.5751 356.412C79.2377 348.711 73.0129 340.36 69.0446 330.423C68.4144 328.836 68.142 327.1 68.2588 325.106C78.2884 331.221 87.3221 338.109 91.6094 350.055C94.5662 347.03 93.8348 344.473 92.5898 342.503C89.8976 338.249 87.0576 334.004 83.7117 330.275C76.9501 322.753 71.3634 314.606 68.2276 304.896C67.9631 304.075 67.9008 303.191 67.5273 301.166C78.374 307.945 87.1198 315.271 91.6717 327.413C94.2394 324.051 94.0526 321.51 92.4653 319.352C88.2558 313.605 83.4316 308.289 79.5412 302.347C75.4561 296.107 72.1181 289.368 68.5856 282.785C68.0798 281.846 68.3132 280.509 68.1265 278.547C78.3429 285.607 87.4933 292.3 91.4227 304.114C93.7959 301.463 94.465 299.985 92.691 297.124C89.5086 291.987 85.9916 286.96 81.9532 282.488C75.923 275.811 71.4645 268.336 68.5 259.9C68.2121 259.071 68.5622 258.016 68.6167 257.069C69.4415 257.202 70.4841 257.069 71.0521 257.523C76.8801 262.214 83.455 266.139 87.3455 272.894C88.855 275.521 90.2166 278.242 91.8273 281.268C94.3872 278.641 94.0215 276.092 92.7999 274.067C90.3956 270.095 87.9368 266.006 84.7466 262.714C78.1406 255.881 73.2152 248.047 69.3481 239.454C68.5389 237.664 68.1965 235.662 68.1187 233.52C78.3896 239.54 87.2988 246.647 91.9829 259.024C94.5818 254.552 93.438 251.596 91.6016 248.735C88.8783 244.497 86.5129 239.986 87.431 234.873C89.1117 225.529 91.2982 216.28 93.2745 206.992C93.8815 207.007 94.4884 207.023 95.1031 207.039C96.1146 210.964 97.2506 214.857 98.0987 218.821C99.2036 224.013 100.293 229.228 100.985 234.49C101.662 239.697 100.106 244.388 97.3051 248.915C95.8189 251.315 95.5699 254.489 94.7607 257.312C95.3521 257.656 95.9434 257.992 96.5348 258.336C102.417 247.546 109.482 237.977 121.356 232.457C120.453 238.743 118.516 244.091 114.937 248.719C110.525 254.427 105.833 259.923 101.375 265.592C99.5304 267.929 97.5774 270.33 96.4181 273.019C95.4299 275.326 95.5077 278.094 95.1186 280.65C95.5077 280.76 95.9045 280.869 96.2936 280.979C99.7327 276.139 102.744 270.916 106.72 266.569C110.665 262.253 115.575 258.829 120.601 255.435C120.601 261.823 118.29 267.218 114.797 271.909C110.183 278.101 104.884 283.778 100.145 289.876C97.0872 293.817 93.8581 297.929 96.1846 304.786C102.114 293.183 109.817 284.333 121.2 278.164C120.749 284.739 118.298 289.837 114.921 294.38C109.303 301.94 103.304 309.211 97.523 316.639C95.1342 319.704 94.644 323.105 96.4414 327.092C101.662 315.505 110.221 307.335 121.854 300.619C120.71 304.364 120.119 307.257 118.975 309.907C115.03 319.102 108.774 326.615 101.826 333.691C99.4293 336.131 97.6241 339.328 96.1768 342.464C95.2587 344.465 95.4921 347.006 96.0134 349.696C101.849 338.805 109.467 330.079 120.951 324.192C120.64 330.783 118.174 335.974 114.742 340.579C109.42 347.725 103.623 354.504 98.1843 361.557C95.7956 364.653 93.9204 368.062 96.5503 373.245C102.145 361.541 109.871 352.729 121.232 346.678C120.399 353.105 118.563 358.57 114.976 363.222C110.151 369.477 104.876 375.38 100.013 381.611C97.0172 385.45 93.7492 389.414 96.099 395.559C99.7794 390.446 102.775 385.27 106.759 381.033C110.852 376.678 115.909 373.23 121.029 369.797C119.722 376.951 116.765 383.253 112.781 388.906C108.984 394.301 104.518 399.218 100.223 404.246C96.6982 408.382 95.2042 412.893 95.212 418.491C95.3676 495.613 95.3132 572.728 95.3287 649.85C95.3287 651.265 95.531 652.688 95.64 654.103H93.3057L93.3135 654.142Z" fill="#F7D747"/>
</g>
</g>
<defs>
<clipPath id="clip0_57_2268">
<rect width="472.705" height="412.516" fill="white" transform="matrix(-1 0 0 1 472.703 0)"/>
</clipPath>
<clipPath id="clip1_57_2268">
<rect width="54.3267" height="447.15" fill="white" transform="matrix(-1 0 0 1 340.504 121.19)"/>
</clipPath>
<clipPath id="clip2_57_2268">
<rect width="54.3267" height="447.15" fill="white" transform="matrix(-1 0 0 1 271.551 121.19)"/>
</clipPath>
<clipPath id="clip3_57_2268">
<rect width="54.3267" height="447.15" fill="white" transform="matrix(-1 0 0 1 202.594 171.338)"/>
</clipPath>
<clipPath id="clip4_57_2268">
<rect width="54.3267" height="447.15" fill="white" transform="matrix(-1 0 0 1 406.09 -0.000244141)"/>
</clipPath>
<clipPath id="clip5_57_2268">
<rect width="54.3267" height="447.15" fill="white" transform="matrix(-1 0 0 1 472.141 68.953)"/>
</clipPath>
<clipPath id="clip6_57_2268">
<rect width="54.317" height="205.524" fill="white" transform="translate(67.5273 206.992)"/>
</clipPath>
</defs>
</svg>
